<?xml version="1.0" standalone="no"?>
<!DOCTYPE svg PUBLIC "-//W3C//DTD SVG 20010904//EN"
 "http://www.w3.org/TR/2001/REC-SVG-20010904/DTD/svg10.dtd">
<svg version="1.0" xmlns="http://www.w3.org/2000/svg"
 width="1049.000000pt" height="564.000000pt" viewBox="0 0 1049.000000 564.000000"
 preserveAspectRatio="xMidYMid meet">

<g transform="translate(0.000000,564.000000) scale(0.100000,-0.100000)"
fill="#000000" stroke="none">
<path d="M0 2820 l0 -2820 1114 0 c733 0 1117 3 1121 10 3 6 16 10 29 10 30 0
98 46 117 79 9 15 32 35 53 45 33 15 36 21 35 54 -1 20 10 68 24 105 30 81 24
113 -31 164 -39 38 -41 36 78 52 47 7 92 14 101 17 21 6 38 -32 31 -74 -3 -24
1 -42 17 -62 11 -16 21 -39 21 -50 0 -18 4 -20 23 -14 12 4 25 12 29 18 5 7
12 4 22 -9 9 -11 16 -23 16 -27 0 -5 -109 -109 -229 -216 -26 -23 -60 -37
-155 -62 -66 -17 -125 -33 -131 -34 -5 -2 60 -4 146 -4 l156 0 32 29 c38 34
53 43 112 63 52 18 166 21 206 5 68 -28 133 -62 149 -80 9 -10 26 -19 37 -19
20 0 21 0 1 14 -30 22 -7 32 27 12 27 -16 32 -16 54 -2 13 8 25 26 27 38 4 29
29 27 115 -13 77 -35 118 -38 126 -8 3 11 15 23 27 26 17 5 -6 20 -106 70
-132 66 -274 152 -274 166 0 4 6 7 14 7 21 0 67 26 59 33 -3 4 1 7 9 7 9 0 18
7 22 15 3 8 10 15 16 15 6 0 28 11 49 26 21 14 51 26 67 27 20 2 30 9 32 22 5
29 85 108 172 171 41 29 96 70 121 89 l47 35 13 -120 c12 -109 15 -122 40
-146 l27 -26 32 18 c30 18 32 18 44 2 15 -20 68 -25 391 -34 298 -9 275 -9
328 11 12 5 17 2 17 -9 0 -12 11 -16 53 -17 47 -1 48 -2 17 -8 -19 -4 -62 -6
-95 -4 -33 1 -106 4 -162 7 -56 2 -106 7 -113 11 -6 4 -17 1 -25 -5 -11 -9
-19 -9 -28 -1 -13 10 -413 18 -424 7 -11 -10 76 -54 128 -64 29 -6 123 -14
207 -17 141 -6 155 -5 168 12 13 17 15 17 28 1 11 -16 31 -18 146 -18 115 0
135 2 146 18 10 14 15 15 25 4 7 -6 23 -12 35 -12 18 0 23 6 22 28 0 15 5 47
11 72 15 65 13 109 -6 128 -16 16 -15 17 4 20 18 3 21 12 26 90 9 134 27 349
36 427 l8 70 2 -60 c1 -33 3 -80 5 -105 1 -25 3 -88 4 -140 l2 -95 20 25 c11
14 20 30 20 36 0 7 7 25 15 40 18 34 20 94 4 94 -8 0 -10 15 -7 45 3 25 2 48
-3 51 -5 3 -9 -6 -9 -20 0 -14 -4 -26 -9 -26 -13 0 -1 73 13 82 17 11 28 -20
24 -73 -1 -27 0 -49 3 -49 4 0 8 31 11 68 6 75 24 124 39 101 5 -9 12 2 21 36
l13 49 5 -39 c4 -29 10 4 23 114 9 85 22 159 27 166 6 7 22 16 35 19 28 7 40
41 32 85 -5 22 0 33 26 56 48 43 146 115 157 115 5 0 14 9 20 20 6 11 34 38
61 60 28 22 48 40 45 40 -4 0 8 16 25 35 39 42 62 44 78 8 7 -16 27 -49 44
-76 l30 -47 58 0 c52 0 57 2 52 19 -3 11 -29 48 -59 82 -30 34 -54 67 -54 72
0 10 26 5 108 -20 40 -12 52 -20 52 -36 0 -18 5 -19 43 -14 28 4 48 2 55 -5
20 -20 15 -148 -7 -191 l-19 -37 24 6 c27 7 26 16 26 -151 l0 -100 8 95 c11
139 23 171 76 203 24 15 44 33 44 41 0 7 6 16 14 19 7 3 17 22 20 42 8 38 63
162 77 171 4 2 -5 -25 -22 -61 -36 -80 -50 -147 -50 -240 -1 -38 -7 -84 -14
-101 -19 -45 -113 -181 -129 -187 -11 -5 -12 -15 -5 -48 6 -24 14 -48 19 -54
6 -7 2 -16 -10 -25 -26 -19 -26 -34 -1 -20 28 14 38 -6 16 -30 -10 -11 -18
-33 -19 -49 -1 -16 -3 -29 -6 -28 -3 1 -21 -5 -40 -12 -31 -11 -33 -14 -15
-21 l20 -7 -20 -5 c-18 -5 -18 -6 3 -7 31 -1 29 -24 -13 -122 -37 -88 -84
-146 -163 -201 -35 -24 -46 -27 -57 -18 -12 10 -15 9 -15 -8 0 -16 -12 -23
-65 -36 -119 -30 -176 -20 -213 38 -15 23 -31 44 -36 47 -5 4 -5 12 -1 19 5 9
4 11 -3 6 -7 -4 -12 0 -12 10 0 10 -3 14 -6 11 -23 -23 68 -156 136 -199 14
-9 22 -19 18 -23 -3 -3 -43 -7 -89 -7 -72 0 -90 4 -143 31 l-61 31 48 -45 c57
-52 121 -75 214 -75 35 0 63 -4 63 -9 0 -5 -28 -23 -63 -40 -45 -22 -78 -32
-117 -33 -50 -1 -52 -2 -26 -11 49 -16 184 23 237 69 10 9 47 16 98 18 77 4
83 3 90 -18 11 -27 91 -101 120 -111 15 -5 21 -13 19 -28 -2 -17 -12 -23 -43
-28 -30 -5 -33 -7 -12 -8 15 0 27 -5 27 -11 0 -5 -12 -13 -27 -17 -52 -14
-118 -6 -171 21 -58 29 -66 23 -25 -19 50 -49 138 -81 197 -70 50 10 100 43
87 58 -7 9 -7 17 1 27 8 12 9 12 4 -2 -3 -11 0 -18 8 -18 8 0 13 7 12 16 -1
12 16 22 54 35 30 11 59 24 64 29 18 18 37 11 83 -30 110 -97 245 -111 315
-33 40 44 61 173 38 228 -7 16 -9 12 -9 -18 -1 -49 -41 -134 -81 -172 -29 -28
-37 -30 -103 -30 -97 0 -177 34 -177 74 0 9 22 29 48 44 64 38 154 125 198
191 31 47 39 54 55 46 27 -15 97 -12 134 5 17 9 45 29 60 45 l28 29 -42 -21
c-27 -13 -63 -20 -108 -21 l-68 -2 5 45 c3 25 5 129 5 233 0 103 3 187 6 187
7 0 25 105 35 198 4 39 10 60 15 55 16 -16 49 -146 49 -190 0 -24 3 -43 8 -43
14 1 42 76 42 113 0 20 5 37 10 37 6 0 10 -6 10 -14 0 -8 13 -48 30 -88 16
-40 30 -63 30 -50 0 12 3 22 8 22 4 0 6 36 4 81 -2 63 -10 98 -37 166 -38 92
-43 123 -22 123 8 0 22 9 32 20 21 23 19 23 180 -16 55 -14 104 -29 109 -34
13 -13 -73 -33 -116 -27 -51 7 -39 -8 18 -22 51 -13 96 -8 133 16 20 13 25 13
32 2 11 -17 29 -79 29 -100 0 -8 10 -35 22 -60 17 -33 22 -60 21 -106 -1 -56
0 -61 13 -48 9 8 12 19 9 25 -4 6 -1 9 5 8 17 -4 50 62 50 100 0 38 -36 105
-92 173 -26 31 -38 55 -38 77 0 18 -4 32 -9 32 -5 0 -12 8 -14 17 -3 12 -5 9
-6 -8 -2 -40 -9 -40 -57 -4 -25 19 -66 45 -92 58 -26 13 -61 33 -79 44 -30 18
-31 21 -18 40 8 12 12 28 9 36 -5 15 10 30 35 34 21 3 66 -23 114 -65 44 -39
35 -22 -20 38 -18 19 -33 38 -33 42 0 4 21 5 48 3 26 -2 59 -4 73 -4 16 -1 45
-18 73 -42 35 -31 50 -39 58 -31 9 9 0 22 -32 52 -23 22 -46 38 -49 36 -3 -2
-17 1 -31 6 -14 6 -55 9 -92 8 -62 -1 -68 0 -68 19 0 11 5 23 10 26 6 4 8 11
5 16 -4 5 -3 9 2 9 4 0 23 14 42 30 31 28 32 30 11 30 -21 0 -120 -93 -120
-112 0 -9 -134 -11 -143 -2 -17 17 172 117 243 129 57 10 75 -4 72 -57 -2 -48
3 -42 13 14 8 48 34 52 36 6 1 -20 3 -25 6 -13 2 11 9 29 14 41 6 11 9 25 7
30 -4 14 50 59 82 69 48 13 100 39 100 48 0 5 -8 6 -17 2 -31 -11 -113 -27
-124 -23 -6 2 5 20 25 40 25 26 31 38 22 41 -13 5 -32 78 -27 105 1 6 -4 12
-11 12 -9 0 -9 3 2 10 25 16 32 12 29 -18 -2 -17 6 -41 20 -60 13 -18 20 -36
17 -39 -8 -9 24 -43 41 -43 7 0 13 5 13 10 0 6 5 10 10 10 6 0 10 -8 10 -17 0
-14 2 -15 12 -4 11 11 11 14 1 18 -7 3 -13 9 -13 15 0 6 6 8 14 5 10 -4 12 0
9 14 -3 10 -14 19 -24 19 -11 0 -19 5 -19 10 0 14 17 12 44 -5 21 -14 23 -14
36 12 8 16 14 30 15 33 1 3 4 12 7 20 15 37 17 86 7 119 -21 67 -29 82 -39 76
-6 -3 -7 1 -4 10 8 19 -33 66 -86 100 -56 35 -141 63 -221 71 -55 6 -68 9 -49
15 18 5 10 7 -30 8 -60 1 -102 -7 -96 -18 3 -4 -10 -7 -27 -8 -59 -2 -59 -1
-47 -22 16 -31 13 -31 -46 -5 -31 13 -83 27 -117 30 l-62 6 70 -35 c46 -23 62
-36 48 -36 -12 -1 -33 3 -48 9 -14 5 -46 11 -71 12 -51 2 -64 13 -57 49 5 28
35 38 113 39 39 0 161 58 168 79 3 8 0 11 -7 7 -6 -4 -11 -2 -11 4 0 6 7 13
15 16 8 4 15 15 15 26 0 11 9 31 20 45 11 14 20 31 20 38 0 6 20 38 45 69 25
32 45 64 45 72 0 17 32 34 64 34 23 0 26 -4 26 -34 0 -25 7 -40 26 -55 15 -12
32 -21 38 -21 7 0 31 -9 54 -20 23 -11 56 -23 72 -27 32 -6 51 -23 26 -23 -8
0 -17 -4 -20 -8 -3 -5 7 -9 22 -9 30 0 82 -29 82 -45 0 -9 -23 -7 -74 9 -31 9
-9 -15 34 -37 22 -11 46 -20 55 -20 8 0 15 -4 15 -9 0 -10 -34 -21 -70 -21
-20 0 -22 -2 -10 -10 9 -6 52 -8 108 -4 88 6 105 2 83 -21 -5 -6 -12 -21 -15
-35 l-7 -25 18 21 c11 12 28 26 40 33 26 13 103 15 103 2 0 -5 -16 -23 -35
-40 -20 -17 -34 -31 -31 -31 20 0 63 27 109 67 97 87 117 103 117 96 0 -9 29
30 30 40 0 5 -4 6 -8 3 -14 -9 -6 64 9 77 8 8 8 6 -1 -7 -14 -17 -13 -18 8
-12 19 6 23 3 28 -24 8 -35 14 -34 18 4 2 15 1 24 -2 22 -2 -3 -11 2 -19 10
-12 11 -12 18 -3 28 8 11 8 16 -2 23 -17 10 -38 48 -38 68 0 8 -7 15 -15 15
-8 0 -15 7 -15 15 0 21 -32 85 -43 85 -5 0 -4 -7 3 -15 7 -8 9 -15 6 -15 -4 0
0 -7 8 -16 9 -8 16 -23 16 -32 0 -13 -2 -13 -15 4 -9 12 -14 14 -15 6 0 -7 -5
-10 -11 -6 -8 5 -8 8 0 14 8 5 9 14 2 33 -6 15 -8 34 -4 44 5 11 3 14 -6 8
-13 -7 -61 38 -61 57 0 12 22 -10 38 -37 6 -11 12 -15 12 -8 0 7 -13 34 -30
60 -16 26 -30 53 -30 60 0 7 -4 13 -10 13 -11 0 -14 -23 -3 -33 9 -10 13 -57
4 -57 -10 0 -31 46 -31 69 0 18 34 54 60 64 10 3 7 6 -8 6 -15 1 -21 5 -16 12
5 9 -4 10 -31 5 -22 -5 -35 -4 -31 2 3 5 26 13 50 16 24 4 47 13 50 21 9 25
24 17 41 -22 9 -21 31 -69 50 -108 18 -38 36 -81 40 -95 4 -14 14 -34 21 -45
8 -11 14 -34 14 -51 0 -17 6 -46 13 -63 l14 -32 11 39 c15 49 16 124 2 138 -7
7 -8 19 -1 37 6 14 8 35 6 46 -5 25 -7 25 40 5 28 -11 41 -12 49 -4 8 8 7 9
-6 5 -12 -5 -31 7 -64 39 -25 25 -50 46 -55 46 -4 0 -13 9 -19 20 -6 11 -14
19 -18 18 -15 -5 -107 83 -123 117 -5 11 -13 27 -18 35 -5 8 -21 42 -36 75
-15 33 -40 79 -56 103 -22 33 -25 42 -12 40 35 -6 22 22 -20 40 -38 17 -52 33
-102 113 -31 52 -70 112 -86 134 -16 22 -43 66 -59 97 -40 76 -70 92 -138 74
-28 -7 -63 -21 -78 -31 l-27 -18 23 -12 c22 -12 22 -12 1 -18 -11 -3 -25 -16
-30 -29 -6 -16 -22 -27 -55 -36 -25 -6 -46 -16 -46 -21 0 -33 -217 -220 -235
-203 -5 4 -5 2 -2 -4 4 -7 -1 -18 -10 -25 -29 -25 -5 32 30 69 17 17 28 32 24
32 -4 0 -22 -15 -40 -34 -31 -33 -127 -86 -156 -86 -8 0 -12 -3 -8 -6 10 -10
-36 -42 -53 -37 -13 4 -13 4 0 -6 19 -13 4 -25 -94 -77 -51 -27 -85 -38 -132
-42 -35 -2 -64 -2 -64 1 0 4 25 25 55 48 30 23 55 46 54 53 0 7 -2 6 -6 -1 -2
-7 -10 -13 -17 -13 -7 0 -38 -16 -70 -35 -32 -19 -60 -35 -62 -35 -1 0 -1 9 1
20 3 17 1 18 -15 7 -13 -7 -16 -15 -10 -21 12 -12 13 -26 1 -26 -14 0 -21 44
-8 52 6 4 8 11 3 15 -4 4 -16 -2 -26 -15 -10 -12 -21 -18 -24 -13 -8 12 41 51
63 51 9 0 22 9 28 20 10 15 10 18 0 14 -10 -4 -12 9 -9 58 2 35 9 71 14 81 10
19 -2 23 -19 6 -8 -8 -17 0 -32 32 -12 23 -21 50 -21 58 0 14 -2 14 -9 2 -8
-12 -16 -9 -48 15 -21 16 -40 29 -43 29 -3 0 -11 4 -17 8 -16 10 -17 -5 -1
-21 9 -9 9 -12 -1 -12 -16 0 -54 20 -64 34 -5 6 -5 1 -2 -11 8 -30 -18 -31
-38 -3 -13 19 -15 19 -21 4 -6 -15 -9 -15 -24 7 -9 13 -16 28 -14 32 1 5 -16
51 -38 103 -42 100 -49 141 -25 150 18 7 20 35 3 52 -9 9 -9 12 0 12 9 0 7 8
-5 26 -16 25 -16 26 8 22 18 -2 24 -10 25 -28 3 -49 6 -65 10 -53 3 7 18 9 40
6 26 -4 50 2 98 26 35 17 68 31 74 31 5 0 15 6 21 14 9 11 9 15 -1 20 -7 3 -3
3 9 0 16 -3 23 1 28 16 3 11 12 20 18 20 7 0 22 16 35 35 12 19 19 35 14 35
-4 0 -8 16 -9 35 -1 19 2 33 6 30 4 -2 8 1 8 8 0 7 4 24 8 40 10 37 -3 35 -16
-3 -14 -40 -29 -38 -29 3 0 24 -8 40 -27 58 -20 17 -23 18 -10 3 26 -31 22
-52 -5 -26 -35 32 -165 89 -248 108 -71 16 -190 16 -285 0 -25 -5 -23 -3 7 7
42 14 49 28 20 42 -11 5 -25 20 -31 33 -15 31 -14 37 4 22 24 -20 19 12 -6 41
-22 26 -20 75 4 91 9 6 7 12 -7 23 -18 14 -18 16 -3 33 13 14 15 25 8 49 -6
22 -5 47 6 82 17 60 25 62 143 31 77 -20 120 -51 120 -88 0 -10 12 -35 26 -56
15 -22 24 -46 21 -57 -3 -12 4 -31 17 -47 12 -15 31 -45 42 -67 33 -67 58
-105 69 -105 7 0 31 -18 55 -40 40 -37 68 -44 56 -14 -3 7 -1 16 5 19 5 4 -6
28 -26 55 -19 26 -35 54 -35 61 0 8 -22 59 -49 114 -27 55 -51 114 -54 132
l-6 31 102 -28 c56 -15 190 -53 297 -85 107 -31 203 -59 214 -62 11 -3 16 -1
12 5 -3 5 -160 60 -348 122 -189 62 -349 115 -357 119 -8 4 -28 33 -45 65
l-30 58 23 17 c29 22 21 58 -15 67 -13 3 -24 10 -24 15 0 5 -90 9 -200 9
l-200 0 -16 -40 c-21 -53 -14 -53 -251 14 -91 26 -95 26 -447 26 -345 0 -356
-1 -366 -20 l-11 -20 -39 20 c-32 16 -58 20 -142 19 l-103 0 99 -49 c117 -58
140 -81 84 -84 -18 -1 -24 -9 -30 -45 -4 -24 -10 -46 -12 -49 -7 -6 -78 37
-146 88 -43 32 -58 51 -71 88 l-16 47 -101 2 c-56 2 -102 1 -102 -1 0 -3 31
-24 70 -48 75 -46 82 -59 125 -207 22 -78 21 -80 -22 -76 -21 2 -137 7 -258
10 l-220 7 23 -24 c26 -28 32 -59 7 -38 -9 7 -18 10 -21 7 -3 -3 3 -12 15 -19
12 -7 21 -18 21 -25 0 -7 4 -13 8 -13 7 0 19 -29 38 -97 2 -7 12 -13 23 -13
11 0 22 -4 25 -9 4 -5 24 -12 46 -16 22 -4 40 -11 40 -17 0 -11 -74 -1 -102
13 -29 15 -40 11 -28 -11 6 -10 9 -25 8 -31 -2 -7 6 -15 17 -18 19 -6 21 -16
16 -65 -1 -6 -6 -5 -13 2 -7 7 -16 12 -22 12 -17 0 45 -58 75 -70 16 -7 29
-16 29 -21 0 -14 -16 -11 -30 6 -7 8 -20 15 -30 15 -16 0 -111 83 -236 207
-33 33 -51 43 -90 48 -27 4 -60 15 -74 25 -14 9 -66 39 -115 65 -99 52 -117
65 -94 65 9 0 42 13 75 28 81 40 124 45 163 21 35 -21 39 -36 14 -55 -15 -11
-15 -15 -5 -22 11 -7 10 -12 -3 -26 -9 -9 -12 -16 -6 -16 5 0 16 7 24 15 13
12 17 12 32 -5 35 -38 50 -25 45 42 -1 14 3 29 9 33 6 3 11 19 11 35 0 73 -43
108 -94 75 -22 -15 -26 -15 -26 -2 0 14 25 27 76 42 12 3 43 -2 69 -11 56 -18
95 -8 95 26 0 13 7 20 18 20 10 0 25 11 32 25 7 13 30 36 52 51 40 28 48 48
22 58 -9 3 -86 6 -172 6 -182 0 -180 1 -187 -101 -3 -33 -9 -68 -15 -78 -14
-28 -97 -79 -154 -96 -64 -19 -186 -19 -231 0 -20 8 -72 24 -118 36 -45 12
-86 26 -91 30 -6 6 3 20 23 36 19 16 45 38 60 51 14 13 52 44 83 70 l58 47
-66 3 -65 3 -72 -62 c-100 -85 -108 -88 -143 -52 -16 16 -51 45 -79 63 -27 19
-51 37 -53 42 -2 4 -483 8 -1068 8 l-1064 0 0 -2820z m1895 2780 c-3 -5 -15
-10 -26 -10 -10 0 -19 5 -19 10 0 6 12 10 26 10 14 0 23 -4 19 -10z m122 -22
c6 -5 16 -23 22 -40 l11 -30 -33 6 c-17 4 -58 11 -89 16 -82 12 -88 19 -37 46
44 23 98 24 126 2z m2906 -28 c107 -27 197 -50 201 -50 14 0 4 -30 -25 -70
-17 -24 -39 -61 -49 -83 -10 -21 -27 -44 -37 -51 -68 -39 -102 -54 -135 -60
-21 -4 -38 -11 -38 -15 0 -4 -18 -15 -41 -24 -48 -19 -37 -24 -190 88 -53 38
-137 95 -187 125 -50 30 -92 58 -92 62 0 7 357 127 382 128 9 0 104 -22 211
-50z m-2857 5 c11 -27 -2 -37 -14 -11 -7 16 -8 26 -1 26 5 0 12 -7 15 -15z
m96 -32 c112 -61 112 -67 1 -44 -73 15 -78 18 -81 44 -4 35 13 35 80 0z m3288
-10 c8 -16 16 -31 18 -35 5 -13 -23 -9 -41 5 -11 8 -15 20 -11 35 8 29 18 28
34 -5z m-3411 -48 c2 -2 -4 -11 -13 -20 -9 -9 -16 -21 -16 -26 0 -19 -26 -6
-55 28 l-30 36 55 -7 c30 -4 56 -9 59 -11z m3500 6 c25 -16 8 -28 -27 -19 -18
5 -30 13 -27 18 8 12 35 13 54 1z m-3732 -7 c-3 -3 -12 -4 -19 -1 -8 3 -5 6 6
6 11 1 17 -2 13 -5z m281 -33 c38 -52 38 -75 -1 -105 -18 -14 -37 -26 -40 -26
-3 0 -16 20 -28 45 l-22 44 27 36 c15 19 30 35 35 35 4 0 17 -13 29 -29z
m1717 19 c4 -6 39 -32 79 -59 68 -47 72 -51 68 -81 -6 -40 -21 -46 -78 -30
-47 14 -62 31 -75 90 -5 19 -11 47 -15 63 -6 27 8 38 21 17z m-1635 -15 l45
-15 -50 6 c-27 4 -54 10 -59 15 -15 13 13 11 64 -6z m-332 -9 c27 -15 162
-146 150 -146 -4 0 -40 27 -79 60 -40 34 -84 70 -98 80 -30 23 -12 26 27 6z
m2625 -140 c78 -51 117 -83 113 -91 -3 -8 0 -12 7 -9 12 4 77 -45 77 -59 0 -3
-14 -8 -31 -12 -24 -5 -34 -2 -49 15 -11 13 -18 25 -16 29 2 3 -13 6 -34 6
-34 0 -37 -2 -28 -18 21 -40 -3 -27 -53 27 -47 52 -69 67 -69 49 0 -5 25 -34
55 -66 30 -32 55 -60 55 -63 0 -2 -12 4 -27 13 -15 10 -40 23 -56 28 -16 6
-36 24 -45 40 -10 17 -20 32 -24 33 -5 2 -8 8 -8 13 0 10 -10 24 -45 63 -27
30 -59 76 -74 105 -11 19 -11 25 0 32 17 10 91 -29 252 -135z m-2118 88 c14
-15 25 -31 25 -35 0 -5 4 -9 9 -9 10 0 9 19 -2 38 -12 19 8 15 113 -19 128
-42 168 -64 186 -102 22 -46 126 -120 219 -157 139 -55 432 -291 537 -432 27
-37 52 -68 54 -68 8 0 -35 77 -50 89 -9 8 -16 22 -16 32 0 10 -6 22 -13 26
-11 7 -57 77 -57 87 0 12 53 0 63 -14 7 -9 32 -26 57 -37 50 -22 181 -124 284
-220 52 -49 66 -69 66 -91 0 -36 -4 -40 -35 -34 -16 3 -25 11 -25 23 0 20 -37
27 -55 10 -13 -11 -119 -31 -167 -31 -28 0 -38 -4 -38 -16 0 -9 -6 -14 -13
-11 -8 3 -20 1 -28 -4 -9 -6 4 -9 41 -10 l55 -2 -50 -7 c-27 -4 -40 -8 -28 -8
20 -2 22 -7 20 -58 -2 -50 1 -57 26 -76 19 -14 26 -26 22 -39 -4 -12 -2 -19 6
-19 10 0 10 -3 1 -12 -18 -18 -15 -28 11 -38 21 -8 20 -9 -8 -10 -23 0 -26 -3
-15 -10 8 -5 11 -12 7 -16 -4 -4 -13 -2 -19 4 -18 18 -67 15 -133 -8 -74 -25
-121 -25 -178 0 -39 17 -52 31 -81 83 -32 59 -178 364 -207 435 -14 32 -29 43
-29 20 0 -10 -3 -9 -9 1 -6 8 -14 10 -22 5 -8 -5 -21 -7 -30 -6 -8 1 -21 -9
-29 -23 -10 -19 -16 -22 -22 -13 -14 20 1 -135 22 -233 10 -48 32 -119 49
-159 17 -40 31 -73 31 -75 0 -2 -19 1 -41 6 -23 6 -44 8 -46 5 -2 -2 10 -7 27
-11 21 -5 30 -12 26 -20 -3 -8 -1 -28 4 -46 l9 -32 -77 5 c-42 3 -104 2 -137
-3 -33 -4 -125 -13 -205 -19 -129 -10 -309 -39 -350 -56 -22 -10 -81 -4 -110
11 -17 9 -32 10 -50 3 -14 -5 -46 -8 -72 -5 -26 2 -47 1 -46 -2 4 -38 -6 -69
-28 -85 -23 -16 -31 -17 -64 -7 -35 10 -52 34 -54 76 -1 6 -28 27 -60 49 -52
33 -57 39 -42 48 18 10 44 8 79 -7 10 -4 17 -3 17 4 0 6 -6 11 -13 11 -13 0
-62 51 -70 73 -3 9 -8 9 -20 -2 -15 -12 -17 -11 -17 3 0 9 4 16 10 16 5 0 7 7
4 15 -8 19 13 19 49 0 15 -8 25 -10 22 -5 -3 5 6 17 20 26 14 9 25 21 25 27 0
6 7 19 17 29 9 10 13 21 10 24 -3 3 -20 -15 -38 -40 -18 -25 -37 -46 -41 -46
-5 0 -27 9 -49 20 -38 20 -45 40 -12 40 12 0 13 3 4 14 -16 19 18 27 144 35
l100 7 -60 12 c-33 7 -81 18 -108 23 l-48 11 46 42 c25 23 45 48 45 54 0 7 10
12 23 13 12 0 16 3 10 6 -7 2 -13 12 -13 20 0 12 -3 13 -13 5 -9 -8 -25 -7
-57 2 -40 12 -45 17 -45 42 0 21 8 33 34 47 32 19 34 19 65 3 l31 -18 -27 25
-27 25 20 21 c11 12 25 19 31 15 6 -4 14 0 19 7 8 12 11 12 19 -1 8 -13 10
-13 10 1 0 9 10 24 23 33 l22 16 -30 -5 c-26 -5 -34 0 -58 30 -24 30 -26 39
-16 51 7 9 20 13 30 11 11 -3 15 1 12 12 -7 29 33 77 91 110 74 41 72 56 -4
25 -33 -13 -63 -24 -68 -24 -5 0 -17 16 -28 36 -21 39 -21 39 45 76 16 9 37
31 46 48 l17 32 -36 -35 c-21 -22 -50 -39 -71 -43 -72 -13 -58 14 28 57 34 17
76 39 92 49 18 11 45 17 68 16 36 -3 51 8 25 17 -7 2 -10 8 -6 12 12 13 132
-80 123 -95 -3 -4 19 -28 49 -54 29 -25 83 -87 120 -139 36 -51 74 -102 84
-112 34 -38 60 -80 63 -105 3 -18 13 -28 38 -36 28 -9 41 -23 69 -78 30 -56
33 -70 24 -90 -11 -25 3 -96 20 -96 4 0 8 -7 8 -15 0 -8 5 -25 12 -38 6 -12
14 -28 18 -36 3 -8 12 -17 18 -19 18 -6 15 30 -5 58 -10 14 -17 45 -18 76 -1
31 -10 65 -22 85 -62 105 -73 129 -61 129 7 0 18 -10 23 -22 13 -30 29 -29 33
0 7 47 -79 132 -133 132 -36 0 -213 225 -193 245 2 2 23 -2 46 -10 43 -15 233
-47 240 -41 4 5 -24 10 -128 27 -99 15 -107 20 -67 42 21 12 42 35 55 63 12
24 22 46 22 49 0 2 -21 -18 -46 -45 -63 -68 -102 -78 -162 -43 -36 21 -50 38
-75 92 -16 36 -31 71 -33 76 -1 6 -3 15 -4 20 -10 43 2 64 55 99 30 20 61 36
69 36 17 0 56 -38 56 -54 0 -6 -5 -4 -10 4 -8 12 -10 11 -10 -7 0 -29 7 -32
62 -26 39 5 47 9 51 29 3 17 -1 25 -17 30 -33 10 -76 44 -76 59 0 12 41 41 63
44 4 1 19 -11 32 -25z m1836 -45 c19 -28 39 -60 45 -71 6 -10 24 -32 40 -49
15 -16 24 -32 21 -36 -4 -3 -7 -2 -7 4 0 5 -11 15 -25 21 -14 6 -25 18 -25 26
0 9 -7 12 -19 9 -25 -6 -135 73 -124 90 13 21 46 57 53 57 4 0 22 -23 41 -51z
m900 24 c-12 -20 -14 -14 -5 12 4 9 9 14 11 11 3 -2 0 -13 -6 -23z m-1004 -94
c19 -12 32 -23 30 -25 -8 -8 -87 8 -87 17 0 5 5 9 11 9 5 0 7 5 4 10 -10 16 5
12 42 -11z m-2293 -5 c4 -11 1 -14 -11 -12 -9 2 -18 9 -21 16 -6 18 25 15 32
-4z m86 -11 c13 -13 11 -14 -20 -11 -24 2 -36 9 -38 21 -3 16 0 18 20 12 12
-4 30 -14 38 -22z m3110 2 c-7 -9 -15 -13 -19 -10 -3 3 1 10 9 15 21 14 24 12
10 -5z m-3306 -44 c0 -25 4 -41 11 -41 16 0 47 -35 38 -44 -4 -4 0 -4 9 -1 24
9 34 -16 13 -32 -25 -18 -35 -16 -29 5 5 16 5 16 -6 -1 -6 -9 -29 -26 -51 -37
-32 -17 -39 -18 -39 -6 0 8 5 18 11 22 6 3 8 15 5 26 -2 11 2 31 11 44 10 15
14 40 11 69 -2 27 1 44 7 42 5 -2 10 -23 9 -46z m1128 15 c68 -30 158 -85 158
-96 0 -37 -119 3 -177 59 -24 23 -43 45 -43 51 0 13 0 13 62 -14z m2108 10 c0
-3 -4 -8 -10 -11 -5 -3 -10 -1 -10 4 0 6 5 11 10 11 6 0 10 -2 10 -4z m-2995
-26 c-3 -5 -15 -10 -26 -10 -11 0 -17 5 -14 10 3 6 15 10 26 10 11 0 17 -4 14
-10z m-60 -23 c7 -7 4 -8 -8 -3 -10 3 -32 6 -48 6 -19 0 -28 4 -24 11 8 12 65
2 80 -14z m-46 -36 c11 -7 9 -11 -8 -21 -23 -12 -51 0 -51 21 0 12 41 11 59 0z
m1551 -101 c0 -5 -7 -10 -15 -10 -8 0 -15 5 -15 10 0 6 7 10 15 10 8 0 15 -4
15 -10z m1818 -32 c-6 -16 -36 -34 -44 -25 -9 9 15 37 33 37 8 0 13 -5 11 -12z
m-3559 -97 c-11 -31 -75 -79 -87 -66 -4 4 -1 10 6 12 33 12 64 50 67 83 5 48
5 48 15 23 6 -14 5 -34 -1 -52z m111 20 c14 -29 16 -41 7 -44 -21 -7 -60 44
-51 67 10 25 22 19 44 -23z m2690 7 c0 -6 -7 -7 -16 -4 -9 3 -18 6 -20 6 -3 0
-3 4 1 10 7 11 35 2 35 -12z m1097 6 c-3 -3 -12 -4 -19 -1 -8 3 -5 6 6 6 11 1
17 -2 13 -5z m-2094 -31 c-7 -2 -19 -2 -25 0 -7 3 -2 5 12 5 14 0 19 -2 13 -5z
m2017 -16 c0 -6 -3 -7 -7 -4 -3 4 -17 -3 -30 -15 -27 -25 -30 -17 -6 16 17 23
43 25 43 3z m-820 3 c0 -13 -30 -13 -50 0 -11 7 -7 10 18 10 17 0 32 -4 32
-10z m900 -10 c0 -5 -4 -10 -10 -10 -5 0 -10 -5 -10 -11 0 -6 7 -9 15 -6 8 4
27 -1 42 -9 l28 -16 -34 6 c-34 6 -34 6 -16 -14 13 -14 25 -18 44 -14 21 5 24
4 14 -6 -14 -15 -6 -40 14 -40 8 0 11 -5 8 -10 -4 -6 -11 -8 -16 -5 -5 4 -9 1
-9 -4 0 -19 -15 -12 -25 11 -15 32 -40 38 -31 7 5 -13 9 -34 9 -46 1 -12 5
-25 10 -29 13 -13 8 -54 -8 -54 -9 0 -12 6 -9 18 5 15 4 15 -9 -1 -15 -18 -17
-18 -56 5 -23 14 -38 28 -34 31 3 4 1 7 -5 7 -7 0 -12 8 -12 18 0 13 -2 14 -9
3 -7 -11 -13 -11 -32 -1 -24 13 -24 13 -5 -9 19 -21 19 -21 -10 -22 -16 0 -23
-3 -16 -6 18 -7 15 -19 -11 -47 l-23 -25 -27 30 -27 31 28 30 c15 17 34 37 43
47 9 9 19 24 22 33 7 19 33 15 40 -5 2 -7 2 0 0 15 -4 24 -2 27 14 21 15 -6
16 -5 5 9 -16 20 2 35 23 18 9 -7 15 -8 20 0 3 5 -1 10 -9 10 -9 0 -16 5 -16
10 0 6 9 10 20 10 11 0 20 7 20 15 0 9 9 15 25 15 14 0 25 -4 25 -10z m35 0
c3 -5 1 -10 -4 -10 -6 0 -11 5 -11 10 0 6 2 10 4 10 3 0 8 -4 11 -10z m-3885
-10 c0 -6 -7 -10 -15 -10 -8 0 -18 0 -22 -1 -4 0 -9 3 -10 8 -2 5 8 10 22 11
14 1 25 -3 25 -8z m30 6 c0 -3 -4 -8 -10 -11 -5 -3 -10 -1 -10 4 0 6 5 11 10
11 6 0 10 -2 10 -4z m2898 -41 c34 -10 27 -51 -8 -47 -35 5 -44 16 -36 48 4
16 10 23 14 17 4 -6 17 -14 30 -18z m1009 -7 c-3 -8 -6 -5 -6 6 -1 11 2 17 5
13 3 -3 4 -12 1 -19z m-3873 -3 c-4 -8 -12 -15 -20 -15 -20 0 -17 18 4 23 9 3
18 5 19 6 1 0 0 -6 -3 -14z m-234 -15 c-8 -5 -19 -10 -25 -10 -5 0 -3 5 5 10
8 5 20 10 25 10 6 0 3 -5 -5 -10z m1982 1 c-11 -6 -7 -13 16 -30 17 -11 37
-21 45 -21 9 0 31 -9 49 -19 18 -11 51 -23 73 -26 51 -9 83 -30 95 -61 5 -13
20 -28 33 -33 27 -11 42 -40 29 -53 -18 -18 -82 11 -154 69 -40 32 -95 74
-123 93 -79 54 -97 72 -83 82 7 4 18 8 23 8 6 0 4 -4 -3 -9z m68 -22 c0 -5 -4
-9 -10 -9 -5 0 -10 7 -10 16 0 8 5 12 10 9 6 -3 10 -10 10 -16z m-1870 -9 c0
-5 -7 -10 -15 -10 -8 0 -15 5 -15 10 0 6 7 10 15 10 8 0 15 -4 15 -10z m-50
-40 c0 -10 -31 -23 -38 -15 -8 7 19 35 29 29 5 -3 9 -9 9 -14z m2423 -33 c20
-40 37 -46 57 -22 16 19 33 19 72 -1 l30 -16 -22 -23 c-13 -14 -38 -30 -57
-36 -42 -14 -52 -6 -77 61 -9 25 -29 55 -44 68 l-27 23 25 -9 c14 -5 33 -25
43 -45z m1737 -24 c-10 -16 -11 -15 -6 7 3 14 6 34 7 45 1 13 3 11 6 -7 2 -15
-1 -35 -7 -45z m-840 53 c0 -3 -4 -8 -10 -11 -5 -3 -10 -1 -10 4 0 6 5 11 10
11 6 0 10 -2 10 -4z m151 -37 c10 -19 9 -20 -10 -10 -11 7 -25 21 -32 32 -10
19 -9 20 10 10 11 -7 25 -21 32 -32z m-3385 -24 c-4 -16 -37 -18 -63 -4 l-24
13 22 17 c21 16 24 16 46 1 12 -10 21 -21 19 -27z m3884 25 c0 -5 -4 -10 -9
-10 -6 0 -13 5 -16 10 -3 6 1 10 9 10 9 0 16 -4 16 -10z m-1830 -10 c0 -5 -5
-10 -11 -10 -5 0 -7 5 -4 10 3 6 8 10 11 10 2 0 4 -4 4 -10z m251 -42 c8 -15
5 -17 -28 -15 -33 2 -38 -1 -41 -20 -2 -13 -9 -23 -17 -23 -8 0 -11 7 -8 20 3
11 8 20 12 20 4 0 13 16 21 35 13 33 14 34 33 18 10 -10 23 -26 28 -35z m1624
22 c-3 -5 -12 -7 -20 -3 -21 7 -19 13 6 13 11 0 18 -4 14 -10z m-36 -72 c1
-12 -27 -10 -34 2 -3 5 0 16 7 24 11 12 14 12 20 -3 4 -9 7 -19 7 -23z m-3949
18 c0 -3 -4 -8 -10 -11 -5 -3 -10 -1 -10 4 0 6 5 11 10 11 6 0 10 -2 10 -4z
m2665 -6 c4 -6 2 -17 -4 -24 -6 -7 -8 -16 -4 -19 3 -4 1 -7 -5 -7 -17 0 -15
-27 3 -34 16 -6 179 -17 279 -20 l58 -1 38 -95 c21 -52 41 -109 45 -126 5 -29
3 -33 -24 -42 -26 -9 -31 -16 -31 -41 0 -17 -4 -31 -10 -31 -16 0 -11 33 11
69 l20 34 -31 -6 c-21 -5 -29 -3 -24 4 11 18 -27 -6 -63 -40 -18 -16 -33 -26
-33 -20 0 17 -21 9 -46 -18 l-25 -28 3 46 c2 28 -2 51 -10 58 -7 7 -10 16 -7
20 2 5 -6 11 -20 13 -14 3 -25 1 -25 -3 0 -5 6 -9 13 -9 16 0 41 -54 27 -58
-5 -2 -10 -10 -10 -18 0 -17 -5 -17 -31 -4 -10 6 -19 18 -19 26 0 8 5 12 10 9
13 -8 13 -4 -4 36 -15 36 -20 31 -29 -26 -4 -21 1 -37 19 -58 13 -16 24 -37
24 -48 0 -15 -14 -5 -60 41 l-59 60 14 47 c19 61 19 59 -5 38 -12 -10 -20 -31
-20 -48 0 -28 -1 -29 -17 -15 -10 9 -33 23 -52 33 -28 14 -38 15 -62 4 -26
-10 -28 -14 -16 -28 14 -16 12 -51 -3 -51 -4 0 -20 14 -33 30 -14 17 -32 30
-40 30 -8 0 -18 11 -21 25 -4 14 -21 34 -39 45 -17 11 -56 40 -84 66 -39 35
-53 54 -53 74 0 15 3 30 7 33 8 8 47 -15 84 -50 21 -19 31 -23 45 -15 11 5 34
7 52 5 21 -4 32 -1 32 7 0 7 6 10 13 7 6 -2 23 0 37 5 19 7 21 11 11 17 -11 7
-9 12 9 21 17 9 19 14 10 20 -9 6 -7 10 8 14 11 4 22 16 25 27 4 15 11 19 25
15 10 -4 30 -2 43 3 32 13 47 13 54 1z m824 -11 c-12 -7 -11 -9 1 -10 8 -1 22
-1 30 0 11 1 10 -2 -3 -10 -10 -6 -26 -7 -35 -3 -9 4 -23 6 -29 5 -21 -3 -15
14 10 25 25 12 46 6 26 -7z m511 6 c7 -8 19 -15 26 -15 8 0 14 -5 14 -11 0 -7
-9 -9 -22 -5 -13 3 -29 6 -35 6 -7 0 -13 9 -13 20 0 24 13 26 30 5z m-243 -1
c-3 -3 -12 -4 -19 -1 -8 3 -5 6 6 6 11 1 17 -2 13 -5z m-1514 -19 c-6 -17 -25
-15 -31 3 -2 7 5 12 17 12 14 0 19 -5 14 -15z m1365 3 c17 -17 16 -21 -18 -64
-33 -40 -77 -122 -76 -139 1 -5 -14 -11 -32 -13 -18 -2 -44 -13 -58 -24 -22
-20 -23 -23 -9 -45 l15 -23 -44 6 c-24 4 -84 1 -132 -5 -130 -17 -134 -19
-128 -39 12 -38 -27 39 -56 114 -46 114 -91 238 -84 231 3 -3 13 -20 23 -38
17 -31 20 -33 72 -32 30 1 123 2 208 2 96 1 159 6 168 12 7 6 31 11 52 11 31
-1 41 4 46 19 4 10 13 19 21 19 8 0 12 5 9 10 -9 14 8 13 23 -2z m192 8 c0 -2
-7 -6 -15 -10 -8 -3 -15 -1 -15 4 0 6 7 10 15 10 8 0 15 -2 15 -4z m57 -13
c-15 -4 -16 -7 -6 -19 11 -13 9 -13 -15 -3 -25 12 -26 14 -9 20 10 4 25 7 33
7 10 0 8 -2 -3 -5z m283 -7 c0 -3 -4 -8 -10 -11 -5 -3 -10 -1 -10 4 0 6 5 11
10 11 6 0 10 -2 10 -4z m-129 -50 c-8 -10 -4 -11 18 -8 16 2 32 -1 36 -8 5 -9
1 -10 -15 -5 -15 5 -20 4 -16 -4 10 -15 -6 -14 -28 2 -18 13 -13 52 6 41 5 -4
5 -11 -1 -18z m148 20 c-2 -2 -15 -9 -29 -16 -23 -12 -24 -12 -11 3 7 10 20
17 29 17 8 0 13 -2 11 -4z m-1999 -21 c0 -9 -6 -12 -15 -9 -8 4 -15 10 -15 15
0 5 7 9 15 9 8 0 15 -7 15 -15z m1672 -142 c30 -43 69 -103 87 -134 30 -55 30
-57 10 -62 -16 -4 -18 -3 -9 8 8 10 3 25 -22 62 -18 26 -39 52 -46 56 -6 4
-21 25 -32 45 -11 20 -32 57 -47 82 -38 65 -6 33 59 -57z m-3834 58 c10 -6 10
-10 -1 -19 -11 -9 -21 -8 -46 4 -17 8 -31 17 -31 20 0 7 65 4 78 -5z m2252
-41 c0 -13 -7 -13 -31 1 -11 5 -17 14 -14 20 7 11 45 -7 45 -21z m-2290 -10
c0 -13 -49 -44 -57 -36 -9 8 27 46 44 46 7 0 13 -4 13 -10z m3837 -62 c6 -7
22 -46 37 -85 15 -40 39 -89 52 -109 17 -25 20 -35 10 -31 -10 4 -13 1 -9 -9
3 -7 12 -14 21 -14 13 0 12 -3 -4 -15 -18 -14 -18 -14 4 -15 13 0 20 -4 17
-10 -3 -5 -19 -10 -35 -10 -20 0 -42 -14 -78 -47 -84 -80 -92 -86 -108 -72
-11 9 -14 8 -14 -6 0 -10 -3 -15 -6 -12 -4 4 1 27 11 52 12 32 22 45 31 41 9
-3 14 2 14 14 0 11 5 20 11 20 5 0 7 5 4 10 -14 22 16 40 59 35 28 -3 33 -2
16 3 -63 20 -100 43 -100 63 0 11 4 17 10 14 7 -4 9 2 4 19 -4 19 0 33 20 57
26 30 38 98 15 83 -6 -3 -9 -15 -6 -25 3 -11 1 -19 -4 -19 -4 0 -6 -6 -4 -13
3 -6 -4 -18 -15 -25 -12 -7 -20 -8 -20 -2 0 5 5 10 10 10 6 0 10 5 10 11 0 6
-7 9 -15 5 -8 -3 -15 -1 -15 4 0 6 5 10 10 10 6 0 18 18 27 40 19 43 25 47 40
28z m-1243 -90 c23 -33 9 -36 -22 -5 -21 21 -23 27 -10 27 9 0 24 -10 32 -22z
m-210 -3 c6 -17 4 -18 -18 -9 -20 8 -21 24 -2 24 8 0 16 -7 20 -15z m856 -190
c5 -6 7 -14 5 -17 -3 -3 6 -36 19 -74 14 -38 22 -72 17 -77 -9 -9 -47 94 -85
230 -34 121 -32 139 4 34 16 -46 34 -89 40 -96z m-1026 133 c-25 -165 -44
-257 -44 -209 0 7 -4 10 -9 7 -16 -10 -41 5 -41 25 0 20 28 39 47 32 7 -3 15
22 23 69 6 40 13 79 15 86 7 20 12 14 9 -10z m1784 -10 c-5 -16 -48 -24 -48
-10 0 11 17 20 38 21 8 1 12 -5 10 -11z m-1035 -109 c2 -57 5 -69 18 -69 9 0
19 -7 23 -15 7 -18 -10 -20 -18 -2 -5 10 -7 10 -12 0 -6 -14 -77 -17 -106 -5
-14 6 -11 19 29 101 52 108 63 106 66 -10z m-906 59 c-3 -8 -6 -5 -6 6 -1 11
2 17 5 13 3 -3 4 -12 1 -19z m573 8 c0 -20 -19 -31 -32 -18 -6 6 -7 15 -4 21
10 16 36 13 36 -3z m1480 -10 c0 -7 12 -35 26 -62 32 -59 58 -150 39 -134 -7
6 -15 23 -18 38 -3 15 -25 55 -48 90 -33 51 -39 65 -29 77 13 16 30 11 30 -9z
m-564 -21 c-11 -8 -32 -26 -48 -40 -30 -27 -34 -25 -18 6 6 11 25 26 43 33 41
19 46 19 23 1z m564 -72 c0 -10 -59 70 -60 81 0 5 14 -10 30 -32 17 -23 30
-45 30 -49z m-2810 13 c0 -5 -9 3 -20 17 -11 14 -20 29 -20 34 1 10 39 -39 40
-51z m2735 44 c-3 -5 -13 -10 -21 -10 -8 0 -12 5 -9 10 3 6 13 10 21 10 8 0
12 -4 9 -10z m-1033 -52 c-8 -8 -9 -4 -5 13 4 13 8 18 11 10 2 -7 -1 -18 -6
-23z m-374 3 c21 -13 10 -46 -16 -49 -17 -3 -22 1 -22 21 0 35 13 45 38 28z
m-554 -23 c13 -22 3 -32 -26 -24 -35 9 -51 23 -43 35 10 17 56 9 69 -11z m786
8 c0 -20 -19 -31 -32 -18 -6 6 -7 15 -4 21 10 16 36 13 36 -3z m1130 -1 c0 -8
-2 -15 -4 -15 -2 0 -6 7 -10 15 -3 8 -1 15 4 15 6 0 10 -7 10 -15z m40 -25 c0
-5 -7 -7 -15 -4 -8 4 -15 8 -15 10 0 2 7 4 15 4 8 0 15 -4 15 -10z m1380 0 c0
-5 6 -10 14 -10 22 0 73 -67 97 -129 12 -31 35 -82 51 -115 16 -32 27 -60 24
-63 -3 -3 -18 2 -33 12 l-28 18 18 -26 c9 -14 17 -28 17 -30 0 -2 -24 -2 -54
0 -31 2 -57 -1 -61 -7 -3 -5 3 -10 13 -10 11 0 30 -9 43 -20 l24 -20 -40 5
c-37 5 -38 4 -12 -6 33 -13 28 -24 -20 -44 -47 -20 -93 -19 -123 2 l-25 16 23
-24 c12 -14 22 -29 22 -33 0 -4 -10 -6 -22 -4 -13 2 -22 8 -21 15 1 6 -7 19
-18 29 -19 17 -20 17 -13 -2 5 -15 4 -16 -5 -4 -6 9 -7 18 -1 24 6 6 10 16 10
22 0 7 14 33 30 57 30 45 43 88 15 51 -14 -19 -14 -18 -15 4 0 12 4 30 9 40
17 34 42 123 37 131 -3 4 3 17 14 29 11 11 16 22 11 24 -11 4 -1 78 10 78 5 0
9 -4 9 -10z m-1490 -14 c0 -8 10 -17 23 -19 12 -3 7 -5 -13 -4 -21 1 -34 -3
-33 -10 1 -6 -6 -9 -17 -6 -22 6 -28 -12 -7 -20 7 -2 8 -8 3 -13 -5 -5 -11 -4
-13 4 -3 6 -8 12 -13 12 -14 0 -4 -51 11 -61 9 -6 10 -9 2 -9 -6 0 -15 5 -18
10 -3 6 -11 10 -16 10 -6 0 -7 -4 -4 -10 3 -5 0 -7 -8 -4 -24 9 -9 45 37 91
43 43 66 53 66 29z m70 -7 c0 -5 -4 -9 -10 -9 -5 0 -10 7 -10 16 0 8 5 12 10
9 6 -3 10 -10 10 -16z m-4011 0 c37 -13 25 -29 -21 -29 -30 0 -31 1 -22 24 7
19 3 19 43 5z m2177 -95 c-8 -32 -15 -51 -15 -42 -1 23 22 123 26 111 2 -5 -3
-36 -11 -69z m2688 42 c-10 -8 -21 -12 -24 -10 -5 6 21 24 34 24 6 0 1 -6 -10
-14z m-10 -48 c-38 -61 -68 -98 -85 -103 -32 -10 -32 -1 0 38 15 20 30 34 33
32 2 -3 15 6 28 20 25 27 36 33 24 13z m-1042 -10 c7 -7 20 -14 28 -16 8 -2
18 -8 21 -14 4 -6 13 -7 20 -3 9 6 11 4 6 -8 -9 -24 40 -60 71 -52 23 6 23 5
8 -11 -11 -11 -25 -14 -43 -10 -20 6 -24 4 -20 -8 4 -9 2 -16 -3 -16 -6 0 -10
6 -11 13 0 6 -4 2 -9 -10 -5 -13 -14 -23 -20 -23 -6 0 -2 13 10 30 24 33 20
50 -13 50 -32 1 -89 53 -81 73 7 20 18 21 36 5z m115 -20 c-3 -8 -6 -5 -6 6
-1 11 2 17 5 13 3 -3 4 -12 1 -19z m-137 -38 c6 -11 9 -20 7 -20 -2 0 -12 9
-22 20 -10 11 -13 20 -7 20 6 0 16 -9 22 -20z m144 -11 c-8 -13 -21 -11 -27 5
-4 10 0 12 14 9 10 -3 16 -9 13 -14z m-3214 -9 c-50 -3 -75 -8 -60 -11 14 -3
0 -3 -30 0 -30 3 -67 5 -82 5 -15 -1 -25 3 -22 7 3 5 67 8 142 7 126 -2 130
-2 52 -8z m133 3 c-7 -2 -21 -2 -30 0 -10 3 -4 5 12 5 17 0 24 -2 18 -5z
m-365 -13 c-10 -6 -25 -7 -40 -1 -20 9 -18 10 17 10 31 0 36 -2 23 -9z m3747
-10 c-10 -11 -21 -18 -23 -15 -3 3 3 12 14 20 27 20 30 18 9 -5z m-3820 0 c-3
-5 -27 -9 -53 -9 -42 1 -44 2 -17 9 45 11 77 11 70 0z m370 -9 c-22 -9 -257
-19 -249 -11 6 5 144 16 219 18 35 0 44 -2 30 -7z m3545 5 c0 -3 -4 -8 -10
-11 -5 -3 -10 -1 -10 4 0 6 5 11 10 11 6 0 10 -2 10 -4z m-3867 -13 c-7 -2
-21 -2 -30 0 -10 3 -4 5 12 5 17 0 24 -2 18 -5z m-80 -10 c-7 -2 -19 -2 -25 0
-7 3 -2 5 12 5 14 0 19 -2 13 -5z m134 1 c-3 -3 -12 -4 -19 -1 -8 3 -5 6 6 6
11 1 17 -2 13 -5z m-2 -12 c91 6 572 2 597 -5 33 -9 47 -45 24 -63 -11 -7 -13
-15 -7 -18 14 -9 3 -34 -29 -65 -14 -14 -38 -47 -53 -73 -26 -45 -56 -66 -76
-53 -5 3 -12 1 -16 -5 -3 -6 4 -10 16 -10 12 0 19 -3 15 -7 -3 -4 -26 -7 -49
-6 -33 0 -35 -1 -9 -4 18 -2 30 -9 27 -14 -4 -5 9 -10 27 -10 18 -1 25 -3 16
-6 -30 -8 -20 -20 37 -48 50 -25 70 -45 45 -45 -5 0 -10 4 -10 8 0 5 -7 9 -15
9 -8 0 -15 -6 -15 -14 0 -7 5 -13 10 -13 15 0 12 -27 -5 -53 l-14 -22 77 2
c57 1 68 -1 42 -7 l-35 -7 32 -2 c17 0 35 4 38 9 3 6 18 10 33 9 l27 -1 -25
-8 c-17 -5 3 -8 62 -9 73 -1 89 2 98 17 8 12 13 13 16 5 3 -7 15 -13 27 -13
11 0 32 -11 47 -25 23 -22 29 -23 66 -14 50 13 111 -1 151 -35 22 -18 57 -29
146 -45 121 -22 189 -38 391 -90 163 -43 307 -70 395 -75 40 -3 75 -7 77 -9 3
-2 5 -25 6 -51 0 -25 4 -46 8 -46 4 0 10 -9 13 -20 4 -14 0 -20 -12 -20 -10 0
-38 -10 -62 -23 -37 -20 -51 -22 -87 -14 -37 7 -43 12 -39 28 6 22 -6 25 -22
5 -10 -12 -17 -12 -45 -1 -17 7 -88 17 -156 20 -69 4 -156 13 -195 20 -49 9
-86 11 -124 5 -30 -5 -59 -6 -65 -1 -23 18 -83 23 -284 23 -223 1 -349 -14
-459 -54 -42 -15 -91 -22 -179 -25 l-121 -5 38 -67 c22 -36 39 -75 39 -86 0
-15 2 -17 9 -6 6 9 11 10 15 2 4 -6 16 -16 28 -22 20 -11 20 -11 2 15 -11 14
-22 26 -26 26 -11 0 -10 30 0 30 5 0 24 -8 43 -17 29 -15 57 -18 182 -15 81 2
157 0 168 -3 19 -6 18 -8 -10 -43 -40 -51 -61 -107 -60 -156 1 -22 4 -31 6
-20 2 12 13 30 24 40 20 18 20 18 10 -10 -17 -44 -13 -43 17 5 16 24 35 49 43
55 20 16 99 27 99 14 0 -5 7 -10 16 -10 8 0 13 -4 10 -9 -3 -5 1 -12 10 -15
12 -5 15 -14 10 -39 l-6 -32 20 25 c11 14 20 29 20 34 0 5 6 4 13 -2 24 -20
137 -39 137 -23 0 5 10 15 23 21 21 11 21 10 3 -4 -15 -12 -16 -16 -5 -17 10
0 10 -2 2 -6 -18 -7 -16 -23 2 -23 18 0 20 -16 3 -18 -7 -1 -29 -5 -48 -10
l-35 -9 28 -8 c15 -4 27 -11 27 -16 0 -11 -37 -12 -43 -1 -2 4 -2 1 0 -6 1 -7
-2 -23 -8 -34 -10 -18 -9 -20 7 -14 11 3 1 -9 -21 -28 -22 -20 -44 -35 -49
-36 -6 0 -19 -9 -30 -19 -52 -47 -203 -111 -381 -161 -60 -17 -118 -35 -127
-40 -10 -6 -31 -10 -48 -10 -16 0 -30 -3 -31 -7 -6 -54 -4 -63 11 -58 8 3 4
-4 -10 -15 -37 -29 -9 -24 36 7 24 16 55 27 79 28 22 1 42 4 45 5 3 2 77 4
165 4 138 1 169 4 225 23 68 23 205 99 262 145 117 95 152 113 203 112 52 -2
125 -27 125 -44 0 -6 8 -10 18 -10 9 -1 34 -21 55 -45 l38 -45 -23 -10 c-21
-9 -20 -9 9 -6 42 5 133 -43 202 -107 28 -26 51 -51 51 -55 0 -20 -141 -69
-187 -65 -7 0 -10 -3 -7 -8 3 -5 3 -9 0 -9 -2 0 -13 -3 -23 -6 -15 -5 -16 -4
-3 5 27 21 -58 0 -107 -26 -39 -21 -44 -21 -38 -6 20 50 19 53 -14 42 -18 -6
-45 -9 -60 -6 -28 6 -29 5 -21 -29 9 -41 -10 -44 -21 -3 -4 13 -7 18 -8 11 -1
-10 -9 -9 -33 6 -30 18 -86 31 -313 73 -38 7 -74 18 -78 24 -6 7 -10 6 -14 -2
-6 -16 -203 -18 -203 -3 0 6 -12 10 -27 10 -23 0 -25 -2 -13 -11 11 -8 12 -12
2 -16 -6 -2 -10 -9 -7 -13 3 -5 1 -17 -4 -27 -5 -10 -12 -26 -15 -36 -3 -10
-10 -15 -16 -12 -6 3 -10 -4 -10 -17 0 -13 -10 -39 -22 -58 -19 -32 -24 -55
-27 -142 -1 -18 -7 -28 -16 -28 -9 0 -12 -6 -9 -15 5 -11 2 -13 -10 -9 -12 5
-15 2 -10 -10 3 -9 14 -15 23 -14 17 3 20 -20 7 -59 -7 -20 -3 -22 53 -29 l59
-6 -3 -35 c-2 -20 -8 -40 -14 -46 -7 -7 -7 -16 0 -29 7 -14 7 -23 -2 -34 -10
-12 -13 -12 -25 3 -12 16 -13 16 -14 -9 0 -16 -4 -28 -10 -28 -5 0 -10 12 -10
26 0 14 -4 23 -9 20 -5 -3 -9 -34 -10 -67 0 -40 -6 -68 -16 -79 -19 -21 -19
-31 0 -24 9 4 15 0 15 -10 0 -9 -3 -15 -7 -15 -27 4 -63 -3 -58 -11 3 -5 1
-10 -4 -10 -6 0 -11 -4 -11 -10 0 -5 8 -10 18 -10 10 0 25 -9 35 -20 19 -23
22 -34 6 -25 -5 4 -18 0 -27 -8 -9 -8 -26 -17 -37 -21 -11 -3 -3 -4 17 -3 29
2 35 0 26 -10 -6 -8 -20 -10 -37 -7 -38 10 -43 14 -32 28 6 7 10 46 10 87 -1
97 1 112 19 125 11 8 12 13 4 18 -14 9 -66 -40 -57 -54 3 -6 1 -10 -4 -10 -6
0 -11 -11 -11 -24 0 -13 -6 -29 -14 -35 -20 -17 -29 -77 -16 -102 9 -15 9 -24
1 -32 -8 -8 -11 -3 -13 19 -1 22 -3 18 -8 -16 l-7 -45 -3 40 c-4 62 -1 75 31
144 38 82 36 95 -7 47 -36 -42 -71 -134 -81 -219 -4 -30 -11 -47 -19 -47 -8 0
-14 4 -14 9 0 10 -17 20 -90 58 -19 10 -38 22 -41 26 -3 4 -24 5 -47 2 -25 -3
-42 -1 -42 5 0 15 -12 12 -55 -15 -22 -14 -33 -24 -25 -23 9 2 15 -1 15 -7 0
-5 -4 -9 -10 -7 -36 12 -66 9 -75 -8 -14 -27 -12 -34 5 -20 12 10 19 10 27 2
9 -9 8 -12 -4 -12 -9 0 -20 -4 -23 -10 -7 -11 15 -5 53 13 17 8 25 8 30 0 8
-13 142 -23 142 -11 0 8 -19 11 -55 9 -17 -1 -17 1 3 9 13 6 28 8 32 5 5 -3
16 7 24 22 14 26 15 26 16 6 0 -16 8 -25 28 -30 l27 -7 -24 -6 c-42 -10 -34
-27 18 -41 44 -11 50 -16 54 -43 3 -17 0 -40 -7 -52 -9 -18 -119 -169 -187
-257 -26 -33 -136 -127 -149 -127 -17 0 2 64 31 111 26 41 59 138 59 172 0 7
-8 -1 -19 -18 -10 -16 -43 -53 -72 -81 -104 -97 -390 -320 -420 -327 -11 -2
-49 87 -49 115 0 23 -18 32 -35 18 -13 -10 -15 -8 -15 13 0 13 6 30 14 36 36
30 197 299 196 328 -1 10 -39 -39 -40 -50 -1 -31 -220 -277 -220 -247 0 6 -4
10 -9 10 -4 0 -6 -11 -3 -25 2 -15 0 -25 -7 -25 -6 0 -11 7 -11 14 0 8 -12 28
-26 43 -21 23 -25 34 -20 63 7 44 -6 65 -83 137 -31 29 -54 53 -51 53 3 0 23
-9 45 -20 22 -11 44 -20 50 -20 7 0 18 -11 25 -25 7 -14 17 -25 22 -25 4 0 8
-18 8 -41 0 -40 1 -41 28 -34 36 9 99 48 84 53 -6 2 -24 -4 -41 -12 -41 -22
-61 -20 -61 4 0 14 7 20 23 20 l22 1 -23 13 c-21 11 -22 14 -7 26 12 10 21 10
41 1 32 -14 34 -14 34 3 0 7 -10 16 -22 19 -18 5 -19 8 -8 21 7 9 18 16 25 16
8 0 11 8 8 20 -3 11 -1 20 5 20 6 0 8 9 5 20 -3 11 0 27 7 35 7 9 11 17 9 18
-52 37 -59 39 -87 16 l-27 -22 35 7 c50 8 63 -3 49 -42 -12 -35 -41 -42 -74
-18 -18 13 -18 14 3 20 12 4 22 12 22 19 0 8 -3 8 -12 -1 -12 -12 -58 -17 -58
-6 0 4 28 34 63 66 35 34 47 49 27 35 -31 -22 -38 -23 -64 -12 -29 12 -29 13
-8 24 12 6 22 9 22 6 0 -3 17 6 37 20 21 14 43 25 50 25 7 0 13 5 13 11 0 5
14 15 32 21 28 10 30 12 12 19 -17 6 -17 7 6 13 31 8 149 66 135 66 -5 0 -28
-5 -50 -10 -22 -5 -71 -12 -110 -15 -38 -4 -76 -8 -83 -10 -9 -3 -11 4 -8 23
2 15 5 35 5 45 1 14 5 16 21 7 16 -9 18 -8 14 5 -8 21 22 20 34 -1 7 -13 9
-10 8 13 0 17 -6 29 -11 27 -6 -3 -16 5 -23 16 -9 16 -9 20 0 20 8 0 6 6 -4
17 -16 15 -16 17 -1 28 13 10 11 11 -14 8 -17 -3 -41 1 -54 8 l-23 12 24 9
c13 5 30 6 38 3 12 -5 13 -3 2 10 -16 19 -18 18 61 39 79 21 159 56 178 79 12
16 11 16 -21 3 -18 -8 -71 -24 -116 -35 -91 -24 -144 -19 -150 13 -5 26 37 66
69 66 15 0 31 5 34 10 3 6 -1 10 -11 10 -13 0 -14 3 -5 14 9 11 8 15 -5 20
-15 6 -11 13 21 46 45 46 41 51 -11 15 -21 -14 -44 -23 -53 -20 -8 3 -18 0
-22 -7 -7 -10 -11 -10 -21 0 -9 9 -9 12 5 12 20 0 23 16 5 23 -20 6 53 47 87
48 17 0 24 3 18 6 -7 2 -13 9 -13 15 0 6 7 8 14 5 10 -4 13 -1 9 8 -3 8 -9 13
-13 10 -4 -2 -45 4 -91 14 -46 11 -82 20 -79 21 3 1 79 3 170 5 179 4 281 -4
287 -21 2 -6 -46 -34 -107 -63 -60 -28 -110 -56 -110 -62 0 -18 30 -69 41 -69
5 0 37 14 71 31 95 48 134 59 253 74 61 7 121 17 134 21 l24 7 -28 -52 c-27
-50 -145 -171 -165 -171 -6 0 -10 -4 -10 -10 0 -6 26 -10 59 -10 53 0 60 3 86
33 27 31 95 165 95 186 0 21 27 11 41 -16 20 -38 17 -184 -5 -217 -20 -31 -17
-32 36 -5 l41 21 -6 71 c-3 40 -14 96 -26 126 l-20 53 32 32 c74 75 75 77 67
131 -12 73 -19 85 -48 85 -14 0 -37 10 -51 23 -36 32 -184 127 -199 127 -7 0
-12 4 -12 8 0 15 -111 45 -123 33 -8 -8 -5 -11 10 -11 25 0 78 -19 71 -25 -2
-3 -18 -1 -34 4 -17 5 -40 4 -54 -1 -24 -9 -24 -10 -5 -20 11 -6 23 -16 27
-22 5 -7 8 -7 8 2 0 14 38 10 67 -7 17 -10 17 -10 1 -11 -10 0 -18 -6 -18 -14
0 -18 -71 -30 -82 -13 -5 8 -8 6 -8 -7 0 -17 -6 -18 -74 -13 -45 3 -92 14
-118 26 -80 39 -153 81 -143 81 6 1 0 5 -13 10 -17 7 -21 16 -18 34 3 17 1 23
-8 20 -8 -3 -12 3 -11 18 1 16 9 25 26 28 13 3 25 13 25 22 1 14 -2 16 -18 7
-11 -6 -23 -7 -26 -3 -4 4 -1 9 6 11 10 4 10 8 1 19 -6 8 -8 14 -3 14 5 0 3 4
-4 9 -9 5 1 12 32 21 25 7 46 16 46 20 0 5 -9 6 -19 3 -11 -3 -28 4 -40 16
-16 16 -29 20 -49 15 -26 -5 -26 -5 -7 11 18 15 18 15 -13 9 -41 -8 -41 -1 3
26 27 16 39 19 49 11 7 -6 16 -8 19 -5 11 11 -17 30 -65 44 -59 18 -62 30 -7
30 l41 0 -23 20 -24 21 34 -7 c21 -4 31 -2 27 4 -3 5 -27 13 -53 17 -71 10
-35 26 82 35 17 2 16 3 -5 10 -20 7 -16 8 25 10 66 3 113 1 150 -7 29 -5 30
-5 12 14 -9 11 -23 20 -30 21 -22 1 -119 31 -126 38 -11 13 98 -5 229 -36 86
-21 130 -36 130 -45 0 -7 -6 -16 -12 -18 -8 -3 -6 -6 4 -6 9 -1 23 7 30 17 18
26 106 16 122 -13 6 -11 12 -22 14 -24 1 -2 13 2 27 9 14 7 28 10 32 7 10 -11
-20 -59 -44 -70 -36 -16 -27 -26 13 -15 46 12 88 39 93 58 15 66 12 87 -23
152 -20 36 -43 72 -51 78 -8 7 -15 16 -15 20 0 16 -102 110 -113 104 -7 -4 -9
-4 -5 1 4 4 1 14 -7 22 -8 8 -15 23 -15 34 0 10 -4 19 -10 19 -5 0 -10 -6 -10
-12 0 -10 -2 -10 -9 0 -5 8 -8 -1 -9 -24 -1 -20 -3 -39 -5 -41 -8 -7 -152 19
-221 39 -58 18 -79 31 -134 85 -36 35 -69 63 -74 63 -4 0 -8 9 -8 20 0 11 7
20 15 20 17 0 48 32 51 52 1 7 8 33 17 58 8 25 18 62 22 82 4 21 13 42 21 49
8 6 14 19 14 28 0 9 7 25 15 35 8 10 12 23 8 29 -3 5 3 7 13 3 24 -7 56 17 48
37 -3 8 0 18 7 23 8 4 10 3 5 -4 -13 -22 5 -34 24 -17 10 9 28 17 41 17 13 1
33 8 44 16 l20 14 -20 -7 c-37 -13 -65 -15 -65 -6 0 13 32 29 46 24 7 -2 10 6
6 24 -5 25 -6 25 -13 8 -7 -19 -8 -19 -8 3 -1 15 -7 22 -20 22 -11 0 -23 5
-26 10 -9 15 -51 12 -65 -5 -14 -17 -47 -20 -52 -5 -2 6 -15 4 -32 -5 -15 -8
-30 -15 -33 -15 -22 0 95 103 144 127 18 8 30 19 27 24 -3 5 1 6 9 3 8 -3 34
4 58 14 67 30 71 32 109 27 19 -3 53 -4 75 -3z m5325 -37 c-13 -16 -40 -20
-40 -7 0 14 12 22 33 22 16 0 17 -3 7 -15z m-6743 -72 c-3 -10 -5 -2 -5 17 0
19 2 27 5 18 2 -10 2 -26 0 -35z m6623 38 c0 -12 -28 -22 -34 -12 -3 5 -3 11
1 15 9 9 33 7 33 -3z m-4200 -17 c0 -17 -45 -34 -61 -23 -8 5 -26 9 -41 9 -31
0 -38 16 -10 23 33 8 112 2 112 -9z m4375 7 c5 -10 -40 -51 -57 -51 -5 0 -11
7 -15 16 -11 29 55 61 72 35z m-4521 -42 c-16 -6 -15 -8 9 -8 15 -1 27 4 27 9
0 6 7 10 16 10 13 0 13 -4 -4 -27 -31 -45 -43 -92 -49 -190 -3 -51 -9 -93 -13
-93 -4 0 -38 11 -76 23 -38 13 -102 34 -141 47 -66 21 -73 26 -73 49 0 15 23
64 50 109 l51 81 97 3 c106 3 138 -1 106 -13z m4386 -3 c0 -17 -34 -31 -50
-21 -16 10 8 35 31 35 11 0 19 -6 19 -14z m-140 -8 c0 -15 -20 -48 -20 -34 0
5 -9 1 -20 -9 -11 -10 -20 -26 -20 -35 0 -9 -11 -27 -24 -39 l-24 -23 -7 22
c-6 18 3 33 46 76 54 55 69 64 69 42z m-6754 -43 c-8 -16 -13 -42 -10 -59 4
-28 4 -29 -6 -8 -10 25 -4 68 13 90 17 21 18 7 3 -23z m4458 10 c8 -23 -4 -45
-25 -45 -28 0 -36 30 -14 46 24 18 32 18 39 -1z m-1276 -51 c6 -4 -39 -84 -47
-84 -4 0 -16 9 -26 20 -14 15 -15 20 -4 20 8 0 15 11 15 25 1 14 5 32 8 41 6
15 9 15 29 -2 12 -10 23 -20 25 -20z m1852 26 c0 -5 -4 -10 -10 -10 -5 0 -10
5 -10 10 0 6 5 10 10 10 6 0 10 -4 10 -10z m-4985 -55 c-22 -60 -29 -53 -7 7
9 26 18 45 21 43 2 -3 -4 -25 -14 -50z m245 5 c0 -16 -4 -30 -9 -30 -5 0 -7 9
-4 20 5 18 0 20 -36 20 -22 0 -41 5 -41 10 0 6 20 10 45 10 43 0 45 -1 45 -30z
m3008 -64 c46 -31 105 -67 132 -81 74 -38 194 -75 239 -75 51 0 53 -15 4 -24
-67 -11 -119 -6 -189 15 -88 27 -324 140 -324 155 0 11 15 43 34 73 5 8 11 9
15 3 3 -5 43 -35 89 -66z m-3048 54 c0 -5 -5 -10 -11 -10 -5 0 -7 5 -4 10 3 6
8 10 11 10 2 0 4 -4 4 -10z m5870 2 c0 -5 -11 -19 -26 -33 -22 -21 -24 -21
-18 -4 13 36 44 62 44 37z m470 1 c0 -10 -55 -35 -93 -42 -53 -9 -68 0 -43 27
11 13 31 18 76 17 33 0 60 -1 60 -2z m400 3 c0 -2 -7 -7 -16 -10 -8 -3 -12 -2
-9 4 6 10 25 14 25 6z m-5640 -16 c0 -5 -2 -10 -4 -10 -3 0 -8 5 -11 10 -3 6
-1 10 4 10 6 0 11 -4 11 -10z m-1335 -57 c-14 -33 -25 -88 -25 -123 0 -44 17
-77 52 -103 40 -30 73 -17 98 38 11 24 20 49 20 54 0 6 5 11 10 11 6 0 10 -20
10 -45 0 -44 24 -90 42 -79 4 3 8 0 8 -5 0 -6 8 -11 19 -11 19 0 51 39 51 63
0 16 -48 51 -125 92 -66 35 -148 95 -141 102 3 4 17 -3 29 -15 13 -12 26 -19
30 -16 8 9 130 -60 173 -98 19 -17 38 -27 42 -24 4 4 6 44 4 87 -1 56 1 78 9
73 7 -4 10 -39 8 -98 -2 -50 0 -97 5 -105 6 -9 5 -12 0 -8 -6 3 -20 -14 -33
-39 -22 -41 -35 -49 -71 -44 -23 3 -60 41 -60 62 0 10 -4 18 -10 18 -5 0 -10
-5 -10 -12 0 -23 -34 -48 -64 -48 -87 0 -128 105 -96 241 7 27 17 49 22 49 6
0 7 -8 3 -17z m6595 8 c0 -5 -10 -11 -22 -14 -22 -6 -22 -6 -4 8 23 17 26 18
26 6z m-6320 -73 c0 -4 -20 -8 -45 -8 -59 0 -59 15 0 16 25 1 45 -3 45 -8z
m435 2 c-3 -5 -16 -15 -28 -21 -19 -9 -19 -8 3 10 28 23 34 26 25 11z m5217
-42 c-12 -12 -25 -18 -29 -14 -4 4 3 16 16 27 31 25 41 15 13 -13z m-5151 -18
c-13 -11 -28 -20 -35 -20 -6 0 3 9 19 20 38 25 47 25 16 0z m6265 -20 c15 -22
25 -43 22 -46 -3 -3 -17 15 -31 40 -32 57 -26 60 9 6z m-1781 10 c3 -5 -1 -10
-9 -10 -8 0 -18 5 -21 10 -3 6 1 10 9 10 8 0 18 -4 21 -10z m-4380 -39 c-6
-11 -156 -83 -161 -78 -4 4 147 86 159 87 5 0 6 -4 2 -9z m4610 0 c7 -12 -12
-24 -25 -16 -11 7 -4 25 10 25 5 0 11 -4 15 -9z m-5233 -18 c10 -9 18 -21 18
-26 0 -6 -9 -2 -20 8 -17 15 -24 16 -45 7 -28 -13 -34 1 -7 17 24 14 33 13 54
-6z m5348 -3 c0 -5 -7 -7 -15 -4 -8 4 -15 8 -15 10 0 2 7 4 15 4 8 0 15 -4 15
-10z m-2520 -40 c0 -5 -4 -10 -10 -10 -5 0 -10 5 -10 10 0 6 5 10 10 10 6 0
10 -4 10 -10z m-2137 -11 c-12 -12 -221 -99 -237 -98 -12 0 38 24 159 75 88
37 94 39 78 23z m3842 1 c3 -5 1 -10 -4 -10 -6 0 -11 5 -11 10 0 6 2 10 4 10
3 0 8 -4 11 -10z m-3618 -26 c-3 -3 -12 -4 -19 -1 -8 3 -5 6 6 6 11 1 17 -2
13 -5z m4633 -53 c-1 -13 -4 -12 -15 3 -8 11 -15 27 -15 35 1 13 4 12 15 -3 8
-11 15 -27 15 -35z m-5695 -9 c30 -29 34 -72 7 -72 -29 0 -60 28 -67 60 -5 23
-12 30 -31 30 -29 0 -41 -24 -24 -45 7 -9 10 -18 7 -21 -3 -3 -11 4 -17 16
-15 28 -5 67 18 72 28 6 81 -14 107 -40z m4957 -18 c4 -3 2 -19 -4 -36 -6 -18
-13 -27 -16 -20 -2 7 -22 12 -47 12 -50 0 -56 6 -44 39 8 21 13 23 57 16 26
-4 50 -9 54 -11z m-5160 -11 c21 -24 58 -99 58 -117 0 -16 21 -26 56 -26 24 0
24 1 -11 31 -39 35 -45 58 -15 66 11 3 20 9 20 14 0 16 77 -29 100 -58 24 -31
24 -84 0 -91 -13 -4 -13 -3 -2 11 10 12 11 21 2 37 -16 29 -89 80 -106 73 -32
-12 -9 -46 54 -77 48 -24 40 -39 -18 -34 -75 5 -62 -17 34 -56 38 -15 52 -26
47 -35 -6 -9 -22 -6 -66 13 -69 31 -65 31 -65 6 0 -15 17 -29 65 -52 57 -29
84 -53 71 -65 -2 -3 -17 3 -33 13 -28 18 -28 18 -12 -1 19 -23 52 -85 45 -85
-2 0 -32 13 -67 30 -35 16 -65 28 -67 25 -12 -12 13 -36 72 -69 36 -20 66 -41
66 -46 0 -14 -6 -13 -43 6 l-32 17 21 -24 c25 -28 48 -69 41 -75 -2 -2 -30 7
-61 22 -32 14 -60 24 -63 20 -14 -13 10 -36 66 -62 33 -16 60 -35 60 -41 1
-18 -14 -16 -59 7 -47 24 -70 25 -70 5 0 -15 9 -22 93 -69 26 -15 45 -31 42
-36 -4 -6 -17 -3 -31 6 -30 20 -30 14 1 -32 14 -20 25 -41 25 -46 0 -4 -27 5
-60 22 -70 35 -67 35 -73 13 -4 -14 -5 -13 -6 4 -1 29 16 33 62 15 21 -8 40
-12 43 -10 5 5 -75 82 -93 89 -5 2 -13 19 -16 37 -6 28 -4 35 13 39 19 5 19 6
-2 33 -11 15 -17 33 -14 39 10 16 53 13 82 -5 13 -9 27 -14 31 -10 9 8 -24 43
-72 76 -40 27 -45 41 -36 93 2 12 40 8 72 -9 17 -8 33 -14 35 -12 6 7 -58 68
-87 83 -21 11 -26 21 -25 45 1 17 8 35 16 40 12 7 11 13 -9 34 -13 14 -33 28
-43 32 -42 13 -110 99 -107 137 0 7 5 -1 11 -18 6 -16 20 -41 32 -53 25 -28
76 -57 76 -43 0 20 -40 101 -59 120 -12 12 -17 21 -13 21 5 0 16 -8 24 -17z
m529 -13 l30 -30 28 21 c16 11 39 19 52 17 33 -4 37 -34 6 -42 -14 -3 -32 -18
-42 -32 -17 -26 -17 -28 6 -45 13 -10 35 -19 49 -19 20 0 22 -2 10 -10 -11 -7
-11 -10 -2 -10 7 0 10 -4 7 -10 -11 -18 -51 -10 -76 16 -23 25 -24 25 -39 6
-63 -78 -160 -42 -160 59 0 63 7 79 44 95 45 19 54 17 87 -16z m514 21 c-14
-13 -183 -63 -197 -59 -6 2 31 18 83 36 97 32 131 39 114 23z m-675 -31 c0 -5
-20 -10 -45 -10 -25 0 -45 5 -45 10 0 6 20 10 45 10 25 0 45 -4 45 -10z m5705
-40 c16 -7 13 -9 -17 -9 -20 -1 -40 4 -43 9 -7 12 32 12 60 0z m-4981 -10 c-6
-6 -55 -21 -110 -34 -124 -30 -174 -39 -154 -27 15 9 194 57 240 64 14 2 27 5
30 6 2 0 -1 -4 -6 -9z m4037 -13 c-10 -9 -11 -8 -5 6 3 10 9 15 12 12 3 -3 0
-11 -7 -18z m159 19 c0 -11 -19 -15 -25 -6 -3 5 1 10 9 10 9 0 16 -2 16 -4z
m-4920 -28 c0 -6 -7 -7 -16 -4 -9 3 -30 6 -47 7 -30 1 -30 1 -7 8 30 9 70 2
70 -11z m5851 -59 c-11 -20 -24 -29 -42 -29 -14 0 -47 -7 -73 -16 -32 -11 -58
-14 -84 -8 -26 5 -31 8 -17 11 11 2 49 16 85 30 94 37 98 38 124 39 23 2 23 1
7 -27z m-6541 17 c0 -3 -4 -8 -10 -11 -5 -3 -10 -1 -10 4 0 6 5 11 10 11 6 0
10 -2 10 -4z m6145 -36 c10 -11 15 -23 11 -27 -6 -6 -46 30 -46 42 0 11 18 4
35 -15z m-4705 0 c0 -5 -10 -12 -22 -14 -50 -11 -281 -37 -285 -32 -7 7 20 13
147 35 125 22 160 24 160 11z m4648 -31 c-31 -20 -41 4 -10 27 14 11 18 10 20
-3 2 -9 -2 -19 -10 -24z m-5851 -1 c-3 -7 -5 -2 -5 12 0 14 2 19 5 13 2 -7 2
-19 0 -25z m453 -4 c0 -8 -4 -12 -10 -9 -5 3 -10 10 -10 16 0 5 5 9 10 9 6 0
10 -7 10 -16z m758 7 c10 -6 10 -10 -2 -20 -9 -7 -21 -11 -28 -8 -8 3 -5 6 6
6 15 1 16 4 6 16 -13 16 -3 20 18 6z m576 1 c3 -5 -1 -9 -9 -9 -8 0 -12 4 -9
9 3 4 7 8 9 8 2 0 6 -4 9 -8z m-2064 -12 c0 -5 -2 -10 -4 -10 -3 0 -8 5 -11
10 -3 6 -1 10 4 10 6 0 11 -4 11 -10z m4960 -97 c35 -4 63 -13 78 -25 12 -10
14 -10 8 0 -4 7 -1 12 8 12 9 0 16 -9 16 -20 0 -11 7 -20 15 -20 9 0 15 9 15
25 0 24 2 25 64 25 72 0 126 -9 126 -21 0 -4 -7 -15 -16 -23 -8 -9 -12 -16 -7
-16 5 0 14 5 21 12 16 16 25 4 28 -39 1 -21 3 -38 4 -38 1 0 3 -13 5 -29 6
-42 -47 -89 -93 -82 l-33 5 21 -36 21 -35 -25 6 c-13 3 -32 9 -42 13 -14 5
-16 3 -10 -13 5 -10 12 -34 18 -52 5 -18 23 -53 39 -77 28 -41 30 -53 36 -164
l6 -120 41 -4 41 -4 -47 -1 -48 -2 -1 63 c-1 128 -13 193 -45 239 -17 24 -38
64 -47 89 -10 25 -35 65 -57 90 -65 73 -95 114 -115 159 -15 32 -20 38 -25 25
-4 -12 -15 7 -36 61 -39 105 -39 107 -7 49 15 -27 35 -51 43 -52z m1207 50
c-12 -26 -35 -30 -44 -8 -8 23 25 57 42 42 9 -9 10 -18 2 -34z m-6097 17 c0
-5 -2 -10 -4 -10 -3 0 -8 5 -11 10 -3 6 -1 10 4 10 6 0 11 -4 11 -10z m660 0
c0 -5 -18 -10 -39 -10 -22 0 -43 5 -46 10 -4 6 12 10 39 10 25 0 46 -4 46 -10z
m266 -36 c21 -16 37 -34 36 -39 0 -6 7 -18 16 -28 11 -12 2 -10 -31 9 -85 47
-211 43 -238 -8 -22 -41 49 -80 107 -58 34 13 44 26 44 60 0 20 2 22 10 10 18
-28 11 -80 -15 -105 -44 -45 -129 -32 -154 22 -17 36 -13 105 7 129 29 36 54
45 119 41 52 -2 69 -8 99 -33z m4640 -1 c9 -21 14 -50 11 -68 -3 -16 -9 -46
-12 -65 -5 -26 -4 -31 4 -20 9 12 11 11 11 -8 0 -29 -20 -24 -37 9 l-13 24 0
-25 c0 -17 -9 -31 -28 -42 -32 -19 -147 -34 -185 -24 -35 8 -49 51 -44 127 4
53 8 64 23 62 9 -1 29 3 43 9 14 5 44 11 66 13 22 2 60 13 85 24 25 11 49 21
53 21 4 0 15 -17 23 -37z m-5359 5 c-3 -8 -6 -5 -6 6 -1 11 2 17 5 13 3 -3 4
-12 1 -19z m361 -2 c3 -13 -1 -17 -14 -14 -11 2 -20 11 -22 22 -3 13 1 17 14
14 11 -2 20 -11 22 -22z m837 15 c26 -11 -27 -18 -170 -25 -78 -4 -99 -3 -70
4 32 7 147 22 210 28 6 0 19 -3 30 -7z m-753 -23 c-7 -7 -12 -8 -12 -2 0 14
12 26 19 19 2 -3 -1 -11 -7 -17z m-682 -28 c0 -5 -4 -10 -10 -10 -5 0 -10 5
-10 10 0 6 5 10 10 10 6 0 10 -4 10 -10z m2460 -10 c0 -5 -2 -10 -4 -10 -3 0
-8 5 -11 10 -3 6 -1 10 4 10 6 0 11 -4 11 -10z m790 -5 c0 -8 -4 -15 -10 -15
-5 0 -10 7 -10 15 0 8 5 15 10 15 6 0 10 -7 10 -15z m1167 -32 c63 -20 70 -34
11 -22 -24 4 -62 8 -85 9 -40 0 -60 10 -46 24 11 11 65 6 120 -11z m-1937 -3
c0 -5 -4 -10 -10 -10 -5 0 -10 5 -10 10 0 6 5 10 10 10 6 0 10 -4 10 -10z
m-2515 -20 c3 -5 -1 -10 -10 -10 -9 0 -13 5 -10 10 3 6 8 10 10 10 2 0 7 -4
10 -10z m725 -4 c0 -7 -10 -17 -22 -20 l-23 -7 23 -11 c12 -6 22 -15 22 -21 0
-5 -11 -2 -25 7 -13 9 -33 16 -44 16 -11 0 -23 5 -26 10 -3 6 4 10 17 10 13 1
34 7 48 15 31 18 30 18 30 1z m6330 -11 c35 -13 19 -13 -150 -5 -3 0 2 5 10
10 21 14 98 11 140 -5z m-914 -10 c7 -17 -13 -73 -33 -93 -10 -10 -18 -10 -43
3 -16 8 -30 20 -30 26 0 6 -4 7 -10 4 -5 -3 -10 -2 -10 4 0 21 22 22 36 2 20
-27 34 -27 34 2 0 25 26 67 41 67 5 0 12 -7 15 -15z m654 -5 c-20 -13 -40 -13
-40 0 0 6 12 10 28 10 21 0 24 -2 12 -10z m-5337 -20 c9 -9 -9 -10 -82 -5
-141 11 -167 26 -38 21 67 -2 113 -9 120 -16z m5004 -11 c26 -16 44 -20 74
-16 21 3 39 2 39 -1 -1 -16 -80 -93 -80 -78 0 8 -8 20 -19 25 -17 10 -65 91
-53 91 2 0 20 -10 39 -21z m683 -9 c0 -5 -5 -10 -11 -10 -5 0 -7 5 -4 10 3 6
8 10 11 10 2 0 4 -4 4 -10z m-1309 -53 c-15 -15 -41 0 -41 23 0 20 1 20 26 4
16 -11 22 -20 15 -27z m-841 23 c0 -5 -4 -10 -10 -10 -5 0 -10 5 -10 10 0 6 5
10 10 10 6 0 10 -4 10 -10z m-3649 -20 c117 -15 134 -19 122 -31 -10 -10 -51
-4 -213 30 -64 13 -12 13 91 1z m1834 0 l20 -9 -20 0 c-11 0 -27 4 -35 9 -13
9 -13 10 0 9 8 0 24 -4 35 -9z m3965 0 c0 -5 -4 -10 -10 -10 -5 0 -10 5 -10
10 0 6 5 10 10 10 6 0 10 -4 10 -10z m48 -15 c-3 -3 -9 2 -12 12 -6 14 -5 15
5 6 7 -7 10 -15 7 -18z m-6531 -7 c-3 -8 -6 -5 -6 6 -1 11 2 17 5 13 3 -3 4
-12 1 -19z m4117 -12 c-3 -14 -10 -26 -15 -26 -11 0 -11 3 1 36 13 33 23 26
14 -10z m2226 14 c0 -5 -2 -10 -4 -10 -3 0 -8 5 -11 10 -3 6 -1 10 4 10 6 0
11 -4 11 -10z m180 -25 c0 -8 -4 -16 -9 -19 -5 -3 -8 5 -7 18 1 25 16 26 16 1z
m-5999 -23 c-7 -2 -18 1 -23 6 -8 8 -4 9 13 5 13 -4 18 -8 10 -11z m5299 14
c0 -11 -19 -15 -25 -6 -3 5 1 10 9 10 9 0 16 -2 16 -4z m520 -37 c0 -10 -4
-19 -10 -19 -5 0 -10 12 -10 26 0 14 4 23 10 19 6 -3 10 -15 10 -26z m-5683 1
c48 -11 98 -22 111 -25 12 -3 22 -10 22 -16 0 -7 -9 -9 -22 -5 -13 3 -59 16
-103 27 -72 19 -122 38 -103 39 4 0 47 -9 95 -20z m5883 -1 c0 -6 -4 -7 -10
-4 -5 3 -10 11 -10 16 0 6 5 7 10 4 6 -3 10 -11 10 -16z m-6482 -27 c2 -12 -1
-22 -7 -22 -6 0 -8 6 -5 14 9 23 -14 28 -26 6 -6 -11 -18 -20 -27 -20 -13 0
-12 5 7 25 28 30 54 29 58 -3z m6469 1 c2 -6 -7 -8 -22 -5 -34 6 -40 18 -7 16
14 0 27 -5 29 -11z m-6559 -31 c3 -9 -2 -13 -14 -10 -9 1 -19 9 -22 16 -3 9 2
13 14 10 9 -1 19 -9 22 -16z m872 9 c0 -5 -9 -7 -20 -4 -11 3 -20 7 -20 9 0 2
9 4 20 4 11 0 20 -4 20 -9z m-190 -11 c0 -5 -5 -10 -11 -10 -5 0 -7 5 -4 10 3
6 8 10 11 10 2 0 4 -4 4 -10z m224 -14 c-8 -21 -31 -27 -38 -11 -3 9 3 15 17
18 12 2 23 5 24 6 1 0 0 -5 -3 -13z m5646 -3 c0 -17 -15 -16 -65 1 l-40 15 52
-2 c35 -1 53 -6 53 -14z m-5858 -15 c43 -13 78 -26 78 -30 0 -12 -11 -10 -91
18 -115 41 -109 47 13 12z m3608 12 c0 -5 -4 -10 -10 -10 -5 0 -10 5 -10 10 0
6 5 10 10 10 6 0 10 -4 10 -10z m-3455 -10 c3 -5 1 -10 -4 -10 -6 0 -11 5 -11
10 0 6 2 10 4 10 3 0 8 -4 11 -10z m3216 -33 c-8 -8 -11 -7 -11 4 0 20 13 34
18 19 3 -7 -1 -17 -7 -23z m2474 13 c-3 -5 -12 -10 -18 -10 -7 0 -6 4 3 10 19
12 23 12 15 0z m-5730 -20 c3 -5 2 -10 -4 -10 -5 0 -13 5 -16 10 -3 6 -2 10 4
10 5 0 13 -4 16 -10z m-200 -25 c37 -14 84 -34 104 -45 58 -31 9 -23 -62 10
-36 17 -69 30 -74 30 -9 1 -50 30 -41 30 3 0 36 -11 73 -25z m-515 -8 c0 -9
-14 -11 -47 -8 l-48 5 40 7 c22 3 43 7 48 8 4 0 7 -5 7 -12z m-423 -24 c0 -16
3 -39 7 -53 7 -23 6 -23 -9 3 -10 17 -14 39 -11 53 8 32 13 30 13 -3z m1307
18 c3 -5 -1 -12 -10 -15 -23 -9 -54 -7 -54 3 0 18 54 28 64 12z m3336 -1 c0
-5 -2 -10 -4 -10 -3 0 -8 5 -11 10 -3 6 -1 10 4 10 6 0 11 -4 11 -10z m-3701
-80 c120 -60 150 -79 90 -58 -28 10 -217 105 -228 114 -19 17 38 -6 138 -56z
m-849 4 c11 -25 20 -51 20 -57 -1 -11 -19 26 -41 81 -16 42 2 22 21 -24z m138
6 c23 -17 42 -33 43 -38 0 -4 3 -19 5 -33 3 -17 -2 -31 -13 -40 -16 -13 -17
-12 -5 3 19 24 -9 69 -60 98 -42 24 -63 19 -54 -14 5 -20 4 -20 -9 -3 -17 24
-10 45 18 50 12 2 25 5 28 6 3 0 25 -13 47 -29z m891 6 c9 -11 6 -12 -14 -8
-14 2 -25 8 -25 13 0 14 26 11 39 -5z m146 4 c3 -5 -1 -10 -10 -10 -9 0 -13 5
-10 10 3 6 8 10 10 10 2 0 7 -4 10 -10z m-435 -66 c0 -2 -13 2 -30 11 -16 9
-30 18 -30 21 0 2 14 -2 30 -11 17 -9 30 -18 30 -21z m440 21 c0 -9 -6 -12
-15 -9 -8 4 -15 10 -15 15 0 5 7 9 15 9 8 0 15 -7 15 -15z m3010 -4 c0 -5 -7
-14 -15 -21 -12 -10 -15 -10 -15 2 0 8 3 18 7 21 9 10 23 9 23 -2z m-3860 -9
c0 -5 -10 -14 -22 -20 l-23 -11 23 -7 c12 -3 22 -10 22 -15 0 -14 -11 -11 -32
8 -14 13 -21 14 -30 5 -7 -7 -16 -12 -21 -12 -11 0 64 58 76 59 4 1 7 -3 7 -7z
m5007 -34 c-3 -8 -6 -5 -6 6 -1 11 2 17 5 13 3 -3 4 -12 1 -19z m-5197 -18 c0
-15 -66 -12 -79 4 -9 11 -6 12 14 8 15 -2 25 0 25 7 0 9 5 9 20 1 11 -6 20
-15 20 -20z m6330 -14 c0 -11 -19 -15 -25 -6 -3 5 1 10 9 10 9 0 16 -2 16 -4z
m-6203 -243 c-2 -32 -3 -8 -3 52 0 61 1 87 3 58 2 -29 2 -78 0 -110z m5008
137 c3 -5 1 -10 -4 -10 -6 0 -11 5 -11 10 0 6 2 10 4 10 3 0 8 -4 11 -10z
m-1275 -10 c0 -5 -4 -10 -10 -10 -5 0 -10 5 -10 10 0 6 5 10 10 10 6 0 10 -4
10 -10z m892 -12 c-9 -9 -15 -9 -24 0 -9 9 -7 12 12 12 19 0 21 -3 12 -12z
m38 -50 c0 -16 -3 -19 -11 -11 -6 6 -8 16 -5 22 11 17 16 13 16 -11z m-100
-13 c0 -23 4 -25 42 -25 l42 0 -24 -17 c-17 -12 -25 -13 -28 -5 -2 7 -10 12
-18 12 -11 0 -14 -16 -14 -66 0 -74 -15 -80 -19 -7 -3 58 -14 73 -56 73 -24 0
-39 -7 -54 -26 -12 -15 -21 -23 -21 -19 0 4 9 19 21 33 17 22 29 27 62 27 36
0 42 3 45 23 5 30 22 28 22 -3z m-1049 -3 c9 -11 42 -33 73 -51 37 -22 56 -39
56 -52 0 -24 -7 -24 -62 0 -49 21 -124 94 -114 110 11 16 30 13 47 -7z m844
-22 c3 -5 1 -10 -4 -10 -6 0 -11 5 -11 10 0 6 2 10 4 10 3 0 8 -4 11 -10z
m1635 5 c0 -11 -40 -84 -48 -89 -5 -3 -25 6 -45 19 -20 14 -40 25 -45 25 -6 0
-12 7 -15 14 -5 11 5 16 36 20 23 3 53 7 67 10 43 6 50 6 50 1z m-1357 -70
c-7 -19 -19 -19 -26 -1 -3 8 -1 17 6 19 18 6 27 -2 20 -18z m-853 0 c0 -8 -4
-15 -10 -15 -5 0 -10 7 -10 15 0 8 5 15 10 15 6 0 10 -7 10 -15z m290 5 c0 -5
-2 -10 -4 -10 -3 0 -8 5 -11 10 -3 6 -1 10 4 10 6 0 11 -4 11 -10z m-618 -32
c-8 -8 -9 -4 -5 13 4 13 8 18 11 10 2 -7 -1 -18 -6 -23z m1962 5 c-4 -16 -13
-41 -20 -58 -14 -29 -14 -29 -9 18 5 53 11 67 26 67 5 0 7 -12 3 -27z m-1854
0 c0 -5 -4 -14 -9 -21 -6 -10 -10 -9 -14 7 -3 14 0 21 9 21 8 0 14 -3 14 -7z
m-2710 -23 c0 -5 -4 -10 -10 -10 -5 0 -10 5 -10 10 0 6 5 10 10 10 6 0 10 -4
10 -10z m900 -10 c0 -5 -4 -10 -10 -10 -5 0 -10 5 -10 10 0 6 5 10 10 10 6 0
10 -4 10 -10z m1682 -12 c-7 -7 -12 -8 -12 -2 0 14 12 26 19 19 2 -3 -1 -11
-7 -17z m-1762 -3 c0 -14 -32 -65 -40 -65 -13 0 -13 13 2 45 10 21 38 36 38
20z m4164 -51 c9 -3 16 -10 16 -16 0 -14 -43 -5 -48 10 -4 13 7 15 32 6z
m-4921 -25 c9 0 17 -5 17 -10 0 -15 -30 -23 -43 -10 -6 6 -24 11 -39 11 -15 0
-28 5 -28 11 0 7 13 9 38 5 20 -3 45 -6 55 -7z m2677 -71 c6 -21 16 -40 21
-43 5 -4 9 -15 9 -25 0 -10 9 -22 21 -25 24 -8 20 -29 -7 -33 -14 -2 -16 -1
-6 6 11 8 11 10 -2 15 -8 3 -16 1 -19 -6 -3 -10 -28 11 -64 57 -19 23 -16 49
8 69 11 10 18 21 15 24 -3 4 -15 -2 -25 -11 -29 -26 -40 -16 -24 22 l13 33 24
-23 c13 -13 29 -40 36 -60z m2290 58 c0 -2 -7 -7 -16 -10 -8 -3 -12 -2 -9 4 6
10 25 14 25 6z m-5026 -22 c18 -7 12 -24 -10 -24 -8 0 -14 7 -14 15 0 17 2 18
24 9z m2346 -24 c0 -5 -4 -10 -10 -10 -5 0 -10 5 -10 10 0 6 5 10 10 10 6 0
10 -4 10 -10z m136 -35 c-9 -14 -14 -30 -11 -35 3 -6 0 -10 -7 -10 -8 0 -19
-12 -26 -27 -15 -34 -34 -66 -50 -85 -6 -8 -10 -17 -8 -19 2 -2 -8 -15 -21
-29 -17 -17 -10 0 22 55 90 154 109 184 113 180 3 -2 -3 -16 -12 -30z m599 25
c4 -6 11 -8 16 -5 5 4 9 -6 9 -22 l0 -28 -13 25 c-7 14 -21 24 -30 24 -9 -1
-14 2 -11 7 7 12 21 11 29 -1z m-972 -17 c-7 -2 -19 -2 -25 0 -7 3 -2 5 12 5
14 0 19 -2 13 -5z m807 -2 c0 -12 -20 -25 -27 -18 -7 7 6 27 18 27 5 0 9 -4 9
-9z m443 2 c-13 -2 -23 -9 -23 -14 0 -5 10 -7 23 -5 12 3 47 7 77 10 l55 5
-43 -14 c-50 -16 -193 -38 -200 -30 -3 3 3 5 12 5 13 0 16 5 12 16 -5 14 -1
16 24 11 22 -5 30 -3 30 8 0 10 9 15 28 14 23 -2 24 -2 5 -6z m-3388 -13 c-3
-5 -11 -10 -16 -10 -6 0 -7 5 -4 10 3 6 11 10 16 10 6 0 7 -4 4 -10z m2126
-23 c-1 -4 -3 -7 -6 -7 -40 0 -40 0 -25 10 16 10 32 9 31 -3z m519 -27 c0 -5
-4 -10 -10 -10 -5 0 -10 5 -10 10 0 6 5 10 10 10 6 0 10 -4 10 -10z m-2555
-21 c0 -16 -28 -24 -53 -14 -15 6 -13 8 8 20 29 16 45 14 45 -6z m2265 1 c0
-5 -4 -10 -10 -10 -5 0 -10 5 -10 10 0 6 5 10 10 10 6 0 10 -4 10 -10z m349
-38 c-12 -5 -39 17 -39 30 0 5 11 1 24 -9 13 -10 20 -20 15 -21z m-136 11 c-7
-2 -19 -2 -25 0 -7 3 -2 5 12 5 14 0 19 -2 13 -5z m314 -18 c0 -17 -7 -18 -33
-8 -16 6 -16 7 2 14 28 11 31 11 31 -6z m-222 -5 c18 -8 17 -9 -7 -9 -16 -1
-28 4 -28 9 0 12 8 12 35 0z m285 -6 c0 -2 -12 -4 -27 -4 -21 0 -24 3 -14 9
13 8 41 5 41 -5z m385 -80 c-8 -43 -16 -97 -16 -119 -2 -32 -3 -34 -6 -11 -5
29 14 193 24 209 13 21 12 -6 -2 -79z m157 44 c-7 -7 -12 -8 -12 -2 0 14 12
26 19 19 2 -3 -1 -11 -7 -17z m-1942 -8 c0 -5 -16 -10 -35 -10 -34 0 -35 -1
-36 -37 l-1 -38 -9 30 c-14 48 -3 65 42 65 21 0 39 -4 39 -10z m3526 -27 c-11
-11 -17 4 -9 23 7 18 8 18 11 1 2 -10 1 -21 -2 -24z m-679 -5 c-3 -7 -5 -2 -5
12 0 14 2 19 5 13 2 -7 2 -19 0 -25z m-911 -53 l-14 -50 -1 43 c-1 23 4 42 9
42 6 0 11 10 11 23 1 12 3 15 5 7 2 -8 -2 -37 -10 -65z m-3433 38 c-7 -2 -21
-2 -30 0 -10 3 -4 5 12 5 17 0 24 -2 18 -5z m1544 1 c-3 -3 -12 -4 -19 -1 -8
3 -5 6 6 6 11 1 17 -2 13 -5z m543 -19 c-6 -8 -9 -19 -5 -24 3 -6 0 -9 -7 -6
-12 4 -59 -50 -89 -105 -8 -13 -28 -44 -45 -69 l-32 -45 25 -33 25 -33 -35
-43 c-81 -99 -209 -225 -233 -231 -34 -9 -41 -1 -21 22 10 10 17 22 17 26 0 4
19 33 43 64 23 31 58 80 77 109 19 28 69 103 112 165 69 103 162 218 175 218
3 0 0 -7 -7 -15z m2942 -8 c2 -13 -1 -28 -8 -34 -9 -9 -12 -5 -12 15 0 44 13
56 20 19z m-2724 -12 c-6 -14 -13 -23 -15 -21 -5 5 15 46 22 46 3 0 -1 -11 -7
-25z m-2318 -15 c0 -5 -5 -10 -11 -10 -5 0 -7 5 -4 10 3 6 8 10 11 10 2 0 4
-4 4 -10z m1808 -38 c6 -15 28 -54 47 -86 19 -32 35 -62 35 -67 0 -9 -181
-252 -217 -290 -23 -25 -25 -26 -58 -10 -42 18 -45 31 -7 31 20 0 23 3 13 9
-12 8 -12 12 2 26 10 9 18 21 18 26 1 5 3 14 4 19 1 6 3 16 4 24 1 8 10 12 25
9 26 -5 41 -28 30 -45 -4 -6 1 -6 14 1 46 24 47 111 2 111 -21 0 -55 16 -78
38 -16 15 -6 12 -77 17 -33 3 -54 2 -47 -1 9 -4 2 -14 -22 -30 -41 -28 -46
-44 -13 -44 12 0 31 -8 42 -16 19 -15 18 -15 -20 -12 l-40 3 4 -40 c3 -35 1
-38 -13 -26 -13 11 -17 9 -26 -14 -11 -29 -35 -24 -27 6 3 10 1 22 -5 25 -5 3
-8 15 -5 25 3 11 1 19 -4 19 -5 0 -11 -11 -15 -25 -3 -14 -14 -30 -24 -35 -29
-16 -38 -11 -10 5 14 8 21 14 16 15 -4 0 -1 11 7 23 8 13 17 37 19 53 2 24 8
29 33 32 43 4 76 23 73 41 -2 12 6 16 39 16 42 0 45 12 5 20 -36 7 -42 14 -32
40 5 14 7 32 4 40 -4 8 -1 15 5 15 6 0 10 3 10 8 -5 28 3 31 64 26 74 -7 178
10 192 31 14 21 18 19 33 -13z m1192 21 c-1 -27 -73 -83 -107 -83 -33 0 -28
14 10 25 17 6 32 15 32 22 0 7 9 19 20 27 21 16 45 21 45 9z m-706 -29 c9 -23
8 -24 -19 -24 -23 0 -24 2 -15 20 13 24 26 26 34 4z m-2400 -26 c-29 -32 -97
-95 -130 -119 -16 -11 8 16 54 60 78 76 119 108 76 59z m1506 12 c0 -5 -5 -10
-11 -10 -5 0 -7 5 -4 10 3 6 8 10 11 10 2 0 4 -4 4 -10z m975 0 c-3 -5 -10
-10 -16 -10 -5 0 -9 5 -9 10 0 6 7 10 16 10 8 0 12 -4 9 -10z m92 4 c-3 -3
-12 -4 -19 -1 -8 3 -5 6 6 6 11 1 17 -2 13 -5z m2330 -16 c-3 -8 -6 -5 -6 6
-1 11 2 17 5 13 3 -3 4 -12 1 -19z m-4757 -48 c14 -10 22 -22 18 -26 -9 -8
-58 22 -58 36 0 15 12 12 40 -10z m-46 -31 c-6 -11 -44 8 -44 21 0 6 10 5 25
-2 13 -6 22 -15 19 -19z m2232 18 c4 10 10 10 25 0 23 -14 25 -47 3 -47 -13 0
-14 3 -5 13 6 8 8 17 4 20 -11 12 -23 7 -23 -9 0 -13 -3 -14 -15 -4 -8 6 -19
9 -25 5 -7 -4 -6 1 1 14 10 15 16 17 22 8 7 -9 10 -9 13 0z m1114 -21 c0 -3
-4 -8 -10 -11 -5 -3 -10 -1 -10 4 0 6 5 11 10 11 6 0 10 -2 10 -4z m-3330 -27
c0 -3 -12 -14 -26 -24 -28 -18 -51 -8 -41 18 5 14 67 20 67 6z m2685 -9 c3 -6
-1 -13 -10 -16 -19 -8 -30 0 -20 15 8 14 22 14 30 1z m518 -10 c-5 -20 -27
-25 -57 -14 -26 10 -6 34 29 34 28 0 32 -3 28 -20z m-3206 -37 c-9 -9 -20 -13
-24 -9 -4 4 -1 11 7 16 25 16 35 11 17 -7z m2588 -3 c-3 -5 -14 -10 -23 -9
-14 0 -13 2 3 9 27 11 27 11 20 0z m-1355 -4 c0 -11 -19 -15 -25 -6 -3 5 1 10
9 10 9 0 16 -2 16 -4z m123 -41 c-4 -53 -44 -60 -42 -7 l1 27 7 -25 c5 -17 9
-21 15 -12 4 7 4 22 1 33 -5 16 -3 20 6 17 8 -3 13 -17 12 -33z m-1308 -47 c4
-4 -9 -15 -30 -25 -36 -17 -37 -17 -51 1 -7 10 -11 22 -9 26 5 9 81 7 90 -2z
m2028 -55 c12 -19 27 -16 28 5 1 16 14 -24 25 -78 3 -14 10 -35 16 -47 6 -12
8 -28 5 -36 -3 -8 -50 -47 -104 -85 -78 -56 -101 -68 -111 -58 -15 15 -6 46
14 46 23 0 56 39 49 60 -4 12 2 26 16 39 13 11 20 24 16 27 -3 4 0 16 8 28 8
11 15 29 15 40 0 13 -10 4 -32 -30 -62 -94 -378 -391 -378 -355 0 5 4 11 9 13
12 4 121 106 121 113 0 3 -33 -22 -72 -56 -40 -33 -86 -68 -103 -76 -16 -9
-46 -27 -65 -41 -19 -14 49 59 151 164 190 192 235 242 304 327 37 47 38 47
59 30 12 -10 25 -24 29 -30z m-1376 31 c-3 -3 -12 -4 -19 -1 -8 3 -5 6 6 6 11
1 17 -2 13 -5z m485 -24 c34 0 39 -9 28 -46 l-8 -29 -2 35 c-2 32 -3 33 -10
10 -16 -49 -12 -59 28 -70 20 -7 51 -10 67 -8 28 3 30 6 27 39 -3 35 -2 36 31
35 29 -1 34 -5 34 -23 0 -13 -4 -23 -9 -23 -5 0 -7 -4 -4 -9 3 -4 0 -15 -7
-24 -10 -13 -23 -15 -74 -8 -59 7 -63 6 -63 -13 0 -16 2 -18 9 -7 8 12 18 12
68 2 51 -11 59 -16 58 -34 -2 -22 -45 -59 -45 -38 0 6 10 16 23 21 16 6 18 9
5 9 -10 1 -27 -12 -39 -29 -12 -16 -35 -32 -50 -35 -15 -4 -33 -13 -40 -21 -6
-8 -17 -14 -23 -14 -24 1 -106 106 -99 127 2 6 0 14 -6 17 -14 9 -1 45 20 57
11 5 19 18 19 29 0 10 8 21 18 23 9 3 2 5 -15 6 -36 1 -38 3 -23 32 10 18 13
18 33 4 12 -8 34 -15 49 -15z m323 20 c-27 -12 -35 -12 -35 0 0 6 12 10 28 9
24 0 25 -1 7 -9z m-1545 -19 c0 -12 -39 -21 -45 -11 -3 5 3 11 12 13 29 8 33
7 33 -2z m680 -11 c8 -5 11 -10 5 -10 -5 0 -17 5 -25 10 -8 5 -10 10 -5 10 6
0 17 -5 25 -10z m4006 -117 c-3 -3 -12 0 -21 7 -20 17 -19 1 2 -22 14 -16 15
-24 4 -61 -24 -79 -81 -175 -118 -197 -19 -11 -37 -20 -40 -20 -15 0 9 104 43
189 29 72 49 106 84 140 l45 46 3 -39 c2 -21 1 -40 -2 -43z m-4703 47 c8 0 8
-3 0 -11 -13 -13 -43 -5 -43 12 0 6 7 8 16 5 9 -3 21 -6 27 -6z m1004 -32 c-3
-8 -6 -5 -6 6 -1 11 2 17 5 13 3 -3 4 -12 1 -19z m590 16 c-3 -3 -12 -4 -19
-1 -8 3 -5 6 6 6 11 1 17 -2 13 -5z m1013 -86 c0 -21 -30 -5 -44 24 -22 44
-20 46 14 13 17 -16 30 -32 30 -37z m140 32 c15 -11 30 -17 34 -13 3 3 6 1 6
-5 0 -17 -37 -24 -59 -10 -12 7 -21 21 -21 30 0 23 6 23 40 -2z m-1193 4 c-3
-3 -12 -4 -19 -1 -8 3 -5 6 6 6 11 1 17 -2 13 -5z m-110 -26 c-3 -8 -6 -5 -6
6 -1 11 2 17 5 13 3 -3 4 -12 1 -19z m156 15 c-7 -2 -19 -2 -25 0 -7 3 -2 5
12 5 14 0 19 -2 13 -5z m67 -3 c0 -5 -4 -10 -10 -10 -5 0 -10 5 -10 10 0 6 5
10 10 10 6 0 10 -4 10 -10z m2771 -40 c-11 -47 -20 -57 -69 -66 -43 -8 -52 2
-21 23 13 9 40 33 59 53 19 19 36 35 38 34 1 -1 -2 -21 -7 -44z m-1258 4 c25
-34 15 -68 -24 -84 -37 -16 -59 -6 -73 33 -22 62 58 105 97 51z m-3193 2 c0
-11 -19 -15 -25 -6 -3 5 1 10 9 10 9 0 16 -2 16 -4z m1093 -38 c9 -11 17 -27
17 -35 0 -7 9 -32 20 -54 l21 -39 -25 -9 c-13 -5 -57 -14 -98 -20 -41 -6 -86
-14 -99 -19 -13 -5 -37 -12 -52 -16 l-28 -7 16 31 c8 16 29 46 47 65 l31 36
15 -30 c8 -17 19 -31 25 -31 5 0 3 8 -5 18 -31 35 -29 52 10 98 31 37 41 44
62 39 14 -3 33 -15 43 -27z m1591 18 c-3 -8 -19 -19 -36 -25 -41 -15 -48 -14
-42 4 4 8 14 15 24 15 11 0 22 5 25 10 10 16 35 12 29 -4z m-1184 -14 c0 -4
-22 -25 -50 -47 -38 -30 -46 -41 -35 -47 8 -5 12 -16 9 -26 -4 -13 -1 -12 14
5 11 12 23 19 27 15 4 -4 2 3 -4 16 -12 22 1 32 15 11 4 -8 9 -8 17 0 6 6 17
11 24 11 17 0 17 -26 1 -34 -7 -4 -3 -4 10 -2 12 2 20 0 16 -5 -3 -5 -15 -9
-27 -9 -18 0 -19 -2 -7 -10 13 -9 11 -14 -12 -35 -16 -13 -28 -28 -28 -32 -1
-11 -36 -53 -45 -53 -4 0 -5 7 -1 15 3 9 0 15 -8 15 -7 0 -21 9 -31 20 -10 11
-24 20 -31 20 -7 0 -15 9 -19 20 -3 11 -14 19 -23 18 -9 -1 -28 0 -42 1 -19 2
-13 6 25 18 28 8 60 15 72 16 12 1 20 4 18 6 -6 6 53 89 67 94 20 8 48 8 48
-1z m53 -57 c-3 -9 -8 -14 -10 -11 -3 3 -2 9 2 15 9 16 15 13 8 -4z m2892 -44
c4 -26 13 -61 21 -76 8 -15 14 -29 14 -31 0 -12 -120 -1 -171 16 -70 24 -124
59 -110 73 5 5 42 15 83 22 42 7 88 20 104 29 45 24 52 20 59 -33z m-2995 19
c0 -5 -7 -10 -16 -10 -8 0 -12 5 -9 10 3 6 10 10 16 10 5 0 9 -4 9 -10z m874
-50 c30 -11 34 -26 8 -32 -17 -5 -62 22 -62 36 0 9 26 7 54 -4z m906 -60 c-8
-5 -28 -9 -45 -9 -26 0 -27 2 -10 9 11 5 31 9 45 9 20 1 22 -1 10 -9z m-2285
-81 c25 -23 45 -47 45 -53 0 -15 -45 -106 -63 -129 -8 -10 -25 -20 -38 -22
-27 -5 -36 -14 -41 -39 -3 -18 -127 -95 -154 -96 -5 0 -20 19 -32 43 -13 23
-20 33 -16 22 4 -11 8 -33 8 -50 1 -26 -4 -31 -49 -48 -58 -22 -214 -51 -224
-42 -3 4 17 28 46 53 71 65 149 157 181 215 19 36 45 62 99 99 149 103 172
108 238 47z m3365 33 c0 -5 10 -14 23 -20 18 -9 19 -11 4 -11 -10 -1 -25 5
-33 13 -16 17 -18 26 -4 26 6 0 10 -4 10 -8z m49 -51 c7 -5 10 -14 7 -20 -11
-17 -26 -13 -19 6 4 11 3 14 -5 9 -7 -4 -12 -2 -12 3 0 13 10 14 29 2z m-3821
-96 c-31 -30 -62 -55 -69 -55 -8 0 4 15 26 33 22 17 51 42 65 54 48 43 35 22
-22 -32z m1047 24 c11 -17 -1 -21 -15 -4 -8 9 -8 15 -2 15 6 0 14 -5 17 -11z
m-177 -111 c-3 -7 -15 -14 -29 -16 -24 -4 -24 -3 -4 12 24 19 38 20 33 4z
m-953 -6 c-6 -5 -52 -48 -103 -95 -94 -89 -119 -101 -156 -74 -16 11 -13 15
26 41 117 79 213 136 227 136 9 0 11 -3 6 -8z m1250 -53 c-5 -35 -10 -47 -16
-38 -13 21 -11 87 4 92 19 7 20 2 12 -54z m-167 -9 c44 -22 85 -40 91 -40 18
0 13 -18 -9 -30 -27 -14 -93 -2 -168 32 -35 15 -71 28 -80 28 -20 0 -7 13 33
34 41 22 42 21 133 -24z m-1325 -127 c22 -13 2 -19 -33 -11 -22 6 -37 14 -34
19 5 8 47 3 67 -8z"/>
<path d="M4760 5210 c-18 -12 -2 -12 25 0 13 6 15 9 5 9 -8 0 -22 -4 -30 -9z"/>
<path d="M2021 5097 c2 -1 13 -9 24 -17 19 -14 19 -14 6 3 -7 9 -18 17 -24 17
-6 0 -8 -1 -6 -3z"/>
<path d="M2605 4853 c59 -63 70 -73 86 -73 9 0 40 -16 68 -35 30 -21 63 -35
80 -35 29 0 29 0 15 30 -9 17 -22 30 -29 30 -8 0 -29 13 -47 29 -42 36 -91 61
-128 66 -16 2 -39 6 -50 10 -18 6 -18 4 5 -22z"/>
<path d="M3380 4810 c0 -5 5 -10 10 -10 6 0 10 5 10 10 0 6 -4 10 -10 10 -5 0
-10 -4 -10 -10z"/>
<path d="M1670 4150 c-13 -9 -13 -10 0 -11 25 -2 44 2 55 12 12 12 -36 12 -55
-1z"/>
<path d="M2695 4130 c-4 -12 0 -26 9 -36 9 -8 16 -22 16 -30 0 -8 5 -14 10
-14 16 0 12 26 -6 41 -9 7 -14 22 -11 36 5 28 -9 31 -18 3z"/>
<path d="M2758 4143 c7 -3 16 -2 19 1 4 3 -2 6 -13 5 -11 0 -14 -3 -6 -6z"/>
<path d="M1635 4110 c21 -24 26 -25 19 -6 -3 8 -13 17 -22 21 -13 5 -13 2 3
-15z"/>
<path d="M2800 4055 c0 -9 6 -12 15 -9 8 4 15 7 15 9 0 2 -7 5 -15 9 -9 3 -15
0 -15 -9z"/>
<path d="M5450 4809 c0 -5 -3 -8 -7 -6 -5 3 -8 -14 -8 -38 0 -24 3 -41 8 -38
4 2 7 13 7 23 0 10 5 22 10 25 6 3 10 15 10 26 0 10 -4 19 -10 19 -5 0 -10 -5
-10 -11z"/>
<path d="M5421 4764 c0 -11 3 -14 6 -6 3 7 2 16 -1 19 -3 4 -6 -2 -5 -13z"/>
<path d="M5310 4661 c0 -5 7 -11 15 -15 8 -3 15 -1 15 3 0 5 -7 11 -15 15 -8
3 -15 1 -15 -3z"/>
<path d="M4055 4360 c3 -5 18 -10 33 -9 24 0 25 1 7 9 -28 12 -47 12 -40 0z"/>
<path d="M4425 4280 c3 -5 8 -10 11 -10 2 0 4 5 4 10 0 6 -5 10 -11 10 -5 0
-7 -4 -4 -10z"/>
<path d="M5515 4090 c4 -6 11 -8 16 -5 14 9 11 15 -7 15 -8 0 -12 -5 -9 -10z"/>
<path d="M5438 4018 c3 -12 7 -17 10 -10 2 6 12 12 23 12 10 0 19 5 19 10 0 6
-13 10 -29 10 -25 0 -28 -3 -23 -22z"/>
<path d="M5421 4004 c0 -11 3 -14 6 -6 3 7 2 16 -1 19 -3 4 -6 -2 -5 -13z"/>
<path d="M5400 3971 c0 -7 -6 -11 -14 -8 -8 3 -17 -1 -20 -10 -10 -26 3 -28
26 -5 12 12 19 25 15 28 -4 4 -7 2 -7 -5z"/>
<path d="M5440 3899 c0 -5 5 -7 10 -4 6 3 10 8 10 11 0 2 -4 4 -10 4 -5 0 -10
-5 -10 -11z"/>
<path d="M2012 3637 c-11 -19 -23 -45 -27 -58 -3 -13 8 0 24 30 34 59 36 84 3
28z"/>
<path d="M2082 3583 c-29 -41 -35 -68 -18 -82 10 -8 16 -9 21 -1 3 5 1 10 -4
10 -17 0 -13 30 10 66 25 41 18 45 -9 7z"/>
<path d="M1985 3490 c10 -11 20 -20 23 -20 3 0 -3 9 -13 20 -10 11 -20 20 -23
20 -3 0 3 -9 13 -20z"/>
<path d="M2477 3389 c7 -7 15 -10 18 -7 3 3 -2 9 -12 12 -14 6 -15 5 -6 -5z"/>
<path d="M2540 3380 c-9 -6 -10 -10 -3 -10 6 0 15 5 18 10 8 12 4 12 -15 0z"/>
<path d="M2438 3363 c7 -3 16 -2 19 1 4 3 -2 6 -13 5 -11 0 -14 -3 -6 -6z"/>
<path d="M2575 3320 c-3 -5 -1 -10 4 -10 6 0 11 5 11 10 0 6 -2 10 -4 10 -3 0
-8 -4 -11 -10z"/>
<path d="M2610 3309 c0 -5 5 -7 10 -4 6 3 10 8 10 11 0 2 -4 4 -10 4 -5 0 -10
-5 -10 -11z"/>
<path d="M1852 3149 l-33 -22 55 -33 c48 -29 106 -82 142 -133 10 -12 11 -9
10 19 -1 19 -7 34 -12 33 -5 -1 -10 11 -10 25 -2 26 -1 26 9 5 5 -13 14 -23
18 -23 4 0 0 13 -9 30 -16 28 -18 29 -31 12 -10 -12 -12 -13 -9 -2 8 24 -10
63 -26 57 -8 -3 -20 1 -26 9 -7 8 -9 14 -4 14 5 0 0 7 -10 15 -25 19 -24 19
-64 -6z m53 1 c3 -6 -1 -7 -9 -4 -18 7 -21 14 -7 14 6 0 13 -4 16 -10z m1 -31
c3 -6 -5 -3 -20 6 -14 10 -26 19 -26 22 0 7 39 -17 46 -28z m39 -27 c-3 -3
-11 0 -18 7 -9 10 -8 11 6 5 10 -3 15 -9 12 -12z m36 -59 c13 -16 12 -17 -3
-4 -10 7 -18 15 -18 17 0 8 8 3 21 -13z"/>
<path d="M1935 3130 c3 -5 8 -10 11 -10 2 0 4 5 4 10 0 6 -5 10 -11 10 -5 0
-7 -4 -4 -10z"/>
<path d="M2043 2976 c4 -10 7 -21 7 -25 0 -4 7 -8 14 -8 11 0 12 5 5 18 -13
25 -34 37 -26 15z"/>
<path d="M4055 2914 c11 -8 18 -18 16 -22 -5 -10 47 -34 62 -29 7 2 -2 11 -19
20 -17 9 -36 23 -43 31 -8 9 -19 16 -25 16 -6 0 -2 -7 9 -16z"/>
<path d="M3801 2906 c2 -2 18 -6 34 -10 22 -5 26 -4 15 4 -14 9 -59 15 -49 6z"/>
<path d="M4025 2900 c3 -5 8 -10 11 -10 2 0 4 5 4 10 0 6 -5 10 -11 10 -5 0
-7 -4 -4 -10z"/>
<path d="M4237 2899 c7 -7 15 -10 18 -7 3 3 -2 9 -12 12 -14 6 -15 5 -6 -5z"/>
<path d="M3168 2853 c12 -2 32 -2 45 0 12 2 2 4 -23 4 -25 0 -35 -2 -22 -4z"/>
<path d="M3258 2853 c12 -2 30 -2 40 0 9 3 -1 5 -23 4 -22 0 -30 -2 -17 -4z"/>
<path d="M4169 2842 c11 -8 11 -10 0 -15 -8 -3 15 -5 51 -5 62 0 63 0 25 9
-86 19 -90 20 -76 11z"/>
<path d="M4085 2810 c-3 -6 1 -7 9 -4 18 7 21 14 7 14 -6 0 -13 -4 -16 -10z"/>
<path d="M4205 2760 c-3 -6 1 -7 9 -4 18 7 21 14 7 14 -6 0 -13 -4 -16 -10z"/>
<path d="M1948 2510 c13 -6 31 -6 45 0 18 7 14 9 -23 9 -37 0 -41 -2 -22 -9z"/>
<path d="M1625 2450 c3 -5 14 -10 23 -10 15 0 15 2 2 10 -20 13 -33 13 -25 0z"/>
<path d="M2105 2440 c3 -5 8 -10 11 -10 2 0 4 5 4 10 0 6 -5 10 -11 10 -5 0
-7 -4 -4 -10z"/>
<path d="M2080 2430 c0 -5 5 -10 11 -10 5 0 7 5 4 10 -3 6 -8 10 -11 10 -2 0
-4 -4 -4 -10z"/>
<path d="M3242 2406 c-33 -19 -35 -23 -15 -30 9 -4 14 -4 11 0 -4 3 3 15 15
25 25 21 22 22 -11 5z"/>
<path d="M3266 2392 c-2 -4 6 -9 20 -10 13 -1 24 3 24 8 0 12 -37 14 -44 2z"/>
<path d="M2616 2075 c9 -14 19 -24 21 -21 6 6 -20 46 -30 46 -4 0 0 -11 9 -25z"/>
<path d="M1695 2050 c27 -12 43 -12 25 0 -8 5 -22 9 -30 9 -10 0 -8 -3 5 -9z"/>
<path d="M2120 869 c0 -5 5 -7 10 -4 6 3 10 8 10 11 0 2 -4 4 -10 4 -5 0 -10
-5 -10 -11z"/>
<path d="M1578 488 c-34 -12 -38 -33 -5 -22 12 4 28 7 35 7 6 0 12 6 12 14 0
15 -5 15 -42 1z"/>
<path d="M2973 3583 c9 -2 23 -2 30 0 6 3 -1 5 -18 5 -16 0 -22 -2 -12 -5z"/>
<path d="M2970 3561 c0 -6 5 -13 10 -16 6 -3 10 1 10 9 0 9 -4 16 -10 16 -5 0
-10 -4 -10 -9z"/>
<path d="M552 3058 c19 -28 45 -44 55 -34 9 8 -41 56 -59 56 -6 0 -5 -9 4 -22z"/>
<path d="M820 2990 c-11 -11 -20 -24 -20 -30 0 -18 39 -50 61 -50 11 0 34 14
51 30 29 30 30 32 13 50 -24 26 -79 26 -105 0z"/>
<path d="M5070 2615 c0 -21 3 -26 9 -16 6 9 11 10 15 3 4 -6 14 -8 24 -5 16 6
16 6 0 -11 -10 -9 -18 -22 -18 -27 0 -10 42 -29 63 -29 20 0 -9 21 -32 23 -20
1 -31 17 -12 17 5 0 12 7 15 15 4 11 -3 19 -21 26 -15 6 -31 16 -35 22 -5 7
-8 -1 -8 -18z"/>
<path d="M5135 2570 c-3 -5 1 -10 9 -10 9 0 16 5 16 10 0 6 -4 10 -9 10 -6 0
-13 -4 -16 -10z"/>
<path d="M4268 1577 c-6 -16 1 -37 13 -37 12 0 12 37 0 44 -5 3 -11 0 -13 -7z"/>
<path d="M3075 1170 c-3 -5 3 -10 15 -10 12 0 18 5 15 10 -3 6 -10 10 -15 10
-5 0 -12 -4 -15 -10z"/>
<path d="M3239 883 c-13 -16 -12 -17 4 -4 16 13 21 21 13 21 -2 0 -10 -8 -17
-17z"/>
<path d="M3357 633 c-4 -3 -7 -11 -7 -17 0 -6 5 -5 12 2 6 6 9 14 7 17 -3 3
-9 2 -12 -2z"/>
<path d="M2717 850 c3 -11 7 -20 9 -20 2 0 4 9 4 20 0 11 -4 20 -9 20 -5 0 -7
-9 -4 -20z"/>
<path d="M2771 774 c0 -11 3 -14 6 -6 3 7 2 16 -1 19 -3 4 -6 -2 -5 -13z"/>
<path d="M2960 576 c0 -8 5 -18 10 -21 6 -3 10 1 10 9 0 8 -4 18 -10 21 -5 3
-10 -1 -10 -9z"/>
<path d="M2876 547 c3 -10 9 -15 12 -12 3 3 0 11 -7 18 -10 9 -11 8 -5 -6z"/>
<path d="M2938 530 c-15 -17 -15 -18 1 -23 12 -3 17 3 19 19 2 28 2 28 -20 4z"/>
<path d="M9537 5603 c7 -47 7 -47 31 -32 27 17 68 -3 76 -36 3 -13 9 -30 12
-39 4 -11 1 -16 -10 -16 -9 0 -16 7 -16 15 0 8 -5 15 -11 15 -12 0 -5 -58 10
-73 5 -5 7 -16 4 -23 -3 -10 3 -14 20 -14 18 0 36 12 58 40 25 31 37 39 52 34
16 -5 19 -3 14 11 -4 9 -7 26 -7 38 0 18 -2 19 -10 7 -9 -13 -11 -13 -20 0 -5
8 -10 22 -10 31 0 9 -5 30 -11 48 -9 24 -14 29 -24 21 -9 -8 -15 -8 -20 0 -3
5 -37 10 -75 10 l-69 0 6 -37z"/>
<path d="M9351 5614 c0 -11 3 -14 6 -6 3 7 2 16 -1 19 -3 4 -6 -2 -5 -13z"/>
<path d="M9378 5613 c6 -2 18 -2 25 0 6 3 1 5 -13 5 -14 0 -19 -2 -12 -5z"/>
<path d="M9470 5580 c0 -11 6 -20 13 -20 7 0 18 9 25 20 11 18 10 20 -13 20
-18 0 -25 -5 -25 -20z"/>
<path d="M10295 5540 c3 -5 8 -10 11 -10 2 0 4 5 4 10 0 6 -5 10 -11 10 -5 0
-7 -4 -4 -10z"/>
<path d="M9856 5515 c-16 -12 -17 -15 -4 -15 9 0 18 7 22 15 7 18 6 18 -18 0z"/>
<path d="M9915 5505 c0 -16 3 -20 12 -14 7 7 13 5 16 -3 3 -7 6 -8 6 -2 1 6
-7 18 -16 27 -17 14 -18 14 -18 -8z"/>
<path d="M10185 5510 c3 -5 8 -10 11 -10 2 0 4 5 4 10 0 6 -5 10 -11 10 -5 0
-7 -4 -4 -10z"/>
<path d="M10017 5480 c-19 -22 -24 -41 -6 -23 6 6 18 9 25 6 15 -6 18 5 6 24
-6 9 -12 7 -25 -7z"/>
<path d="M10200 5400 c-10 -6 -11 -10 -2 -10 6 0 12 -7 12 -15 0 -18 16 -20
26 -3 4 6 2 14 -4 16 -7 2 -10 8 -6 13 7 12 -7 11 -26 -1z"/>
<path d="M10110 5344 c-10 -11 -10 -17 -2 -25 7 -5 10 -6 7 -3 -3 4 3 12 12
19 10 7 12 14 6 18 -6 4 -16 0 -23 -9z"/>
<path d="M10104 5283 c7 -23 -2 -35 -38 -51 -36 -16 -28 -25 16 -17 22 4 34
12 35 23 1 10 2 22 3 27 4 20 0 35 -11 35 -6 0 -8 -8 -5 -17z"/>
<path d="M10232 5281 c-18 -11 -12 -45 8 -48 26 -5 43 13 35 36 -7 22 -21 26
-43 12z"/>
<path d="M2940 5240 c-9 -6 -10 -10 -3 -10 6 0 15 5 18 10 8 12 4 12 -15 0z"/>
<path d="M10127 5213 c-10 -9 -9 -41 2 -45 5 -2 5 -13 0 -25 -9 -25 -38 -30
-57 -11 -10 10 -15 10 -20 1 -13 -22 -82 -45 -97 -33 -9 7 -16 6 -25 -5 -7 -9
-19 -14 -27 -11 -9 4 -13 -4 -13 -24 0 -17 -4 -30 -9 -30 -5 0 -7 9 -4 20 8
30 -4 24 -21 -12 -20 -38 -20 -39 -1 -32 11 4 13 2 9 -9 -3 -8 -1 -18 5 -22 7
-4 11 4 11 19 0 26 13 32 44 20 9 -3 16 -12 16 -20 0 -18 18 -18 36 1 14 13
14 15 0 15 -9 0 -16 4 -16 8 0 12 88 14 95 2 3 -5 0 -10 -7 -10 -13 -1 -41
-55 -52 -101 -4 -19 -15 -29 -38 -35 -23 -7 -33 -16 -33 -29 0 -11 -4 -26 -8
-32 -6 -9 -1 -13 14 -13 16 0 20 -5 16 -20 -3 -11 -1 -20 4 -20 5 0 10 10 11
23 1 12 3 31 4 42 1 11 2 26 3 33 1 6 6 12 11 12 6 0 10 -18 10 -40 0 -22 -5
-40 -11 -40 -6 0 -9 -6 -6 -12 2 -7 10 -12 16 -10 6 1 11 -2 11 -7 0 -19 47
-61 68 -61 11 0 23 -4 27 -10 6 -9 45 23 45 38 0 4 -9 7 -20 7 -27 1 -35 12
-20 30 7 9 21 13 31 10 21 -7 24 2 10 25 -12 18 -5 31 14 24 10 -4 13 -14 9
-30 -8 -30 15 -33 41 -4 27 29 34 24 23 -14 -6 -19 -8 -42 -4 -51 5 -15 7 -15
22 0 9 8 13 22 10 30 -3 9 0 12 10 8 10 -4 14 2 14 21 0 14 -4 26 -10 26 -5 0
-10 -7 -10 -15 0 -8 -5 -15 -11 -15 -6 0 -8 7 -5 16 3 9 6 20 6 25 0 5 12 9
26 9 14 0 23 4 19 10 -3 6 2 10 11 10 14 0 15 3 6 12 -16 16 -15 28 1 28 6 0
25 7 41 15 30 16 115 12 127 -7 3 -5 6 11 5 36 0 26 -3 46 -6 46 -4 0 -16 -11
-28 -25 -22 -25 -56 -33 -67 -15 -3 5 -12 7 -19 4 -11 -4 -12 4 -5 41 9 49 5
70 -12 59 -6 -3 -16 2 -23 12 -13 17 -14 17 -24 -3 -24 -44 -92 -36 -92 11 1
40 24 57 67 50 45 -7 57 7 39 41 -15 28 -44 27 -63 -1 -8 -13 -21 -24 -29 -24
-18 0 -95 71 -88 82 6 10 0 11 -9 1z m-51 -124 c8 -14 -11 -33 -25 -25 -11 7
-4 36 9 36 5 0 12 -5 16 -11z m104 -5 c0 -8 -4 -12 -10 -9 -5 3 -10 10 -10 16
0 5 5 9 10 9 6 0 10 -7 10 -16z m-210 -18 c0 -23 -18 -29 -35 -12 -11 11 -12
16 -2 19 23 10 37 7 37 -7z m185 -36 c0 -29 -32 -41 -41 -16 -9 24 4 48 23 44
12 -2 18 -12 18 -28z m105 -30 c0 -5 -2 -10 -4 -10 -3 0 -8 5 -11 10 -3 6 -1
10 4 10 6 0 11 -4 11 -10z m55 -24 c26 -40 -1 -72 -51 -60 -23 6 -35 34 -14
34 6 0 10 5 10 10 0 13 22 39 32 40 4 0 14 -11 23 -24z m-118 -32 c30 -28 33
-34 16 -29 -17 5 -23 2 -23 -9 0 -9 5 -16 10 -16 6 0 10 -11 10 -25 0 -14 -4
-25 -10 -25 -5 0 -10 12 -10 26 0 19 -4 25 -14 21 -8 -3 -20 1 -26 8 -7 8 -16
12 -22 9 -5 -3 -4 -12 4 -21 12 -15 11 -15 -9 -3 -16 10 -25 11 -35 2 -9 -7
-19 -8 -28 -1 -13 8 -13 10 -1 18 8 5 20 7 28 4 10 -4 13 1 9 21 -5 26 -1 29
61 55 1 1 19 -15 40 -35z m-120 -6 c-3 -8 -6 -5 -6 6 -1 11 2 17 5 13 3 -3 4
-12 1 -19z m-122 -97 c3 -5 1 -12 -4 -15 -5 -3 -11 1 -15 9 -6 16 9 21 19 6z
m288 -6 c-3 -9 -8 -14 -10 -11 -3 3 -2 9 2 15 9 16 15 13 8 -4z m-193 -35 c0
-11 -4 -20 -10 -20 -5 0 -10 9 -10 20 0 11 5 20 10 20 6 0 10 -9 10 -20z"/>
<path d="M10080 5200 c0 -5 5 -10 11 -10 5 0 7 5 4 10 -3 6 -8 10 -11 10 -2 0
-4 -4 -4 -10z"/>
<path d="M10400 5175 c0 -8 5 -15 10 -15 6 0 10 7 10 15 0 8 -4 15 -10 15 -5
0 -10 -7 -10 -15z"/>
<path d="M5371 5144 c0 -11 3 -14 6 -6 3 7 2 16 -1 19 -3 4 -6 -2 -5 -13z"/>
<path d="M6408 5153 c7 -3 16 -2 19 1 4 3 -2 6 -13 5 -11 0 -14 -3 -6 -6z"/>
<path d="M10425 5067 c-4 -11 -3 -23 3 -29 12 -12 42 -4 42 11 0 6 -6 8 -14 5
-8 -3 -16 2 -19 13 -4 17 -4 17 -12 0z"/>
<path d="M6050 5004 c-41 -106 -34 -179 26 -268 32 -48 48 -50 22 -3 -17 30
-17 36 -24 172 -4 66 -8 122 -10 124 -2 2 -8 -9 -14 -25z"/>
<path d="M7545 4911 l-40 -5 45 -6 45 -6 -45 -12 -45 -12 43 5 c30 4 41 2 40
-7 -2 -7 2 -13 7 -13 47 -7 154 -66 196 -110 47 -48 56 -69 58 -127 2 -58 -6
-68 -53 -69 -37 0 -39 -1 -16 -10 31 -13 99 -2 124 20 31 28 48 70 40 104 -33
153 -218 268 -399 248z"/>
<path d="M6001 4854 c0 -11 3 -14 6 -6 3 7 2 16 -1 19 -3 4 -6 -2 -5 -13z"/>
<path d="M9768 4753 c7 -3 16 -2 19 1 4 3 -2 6 -13 5 -11 0 -14 -3 -6 -6z"/>
<path d="M10168 4753 c7 -3 16 -2 19 1 4 3 -2 6 -13 5 -11 0 -14 -3 -6 -6z"/>
<path d="M10185 4720 c4 -6 11 -8 16 -5 14 9 11 15 -7 15 -8 0 -12 -5 -9 -10z"/>
<path d="M10130 4679 c0 -5 5 -7 10 -4 6 3 10 8 10 11 0 2 -4 4 -10 4 -5 0
-10 -5 -10 -11z"/>
<path d="M8795 4421 c-17 -33 -20 -65 -6 -57 5 4 7 -3 4 -14 -7 -26 17 -27 39
-1 13 16 15 27 7 55 -13 48 -25 52 -44 17z"/>
<path d="M9539 4437 c-21 -16 -53 -66 -47 -73 7 -6 79 42 90 59 16 25 -15 36
-43 14z"/>
<path d="M9538 4151 c-72 -15 -161 -98 -183 -170 -6 -18 4 -12 44 27 86 85
159 93 258 27 31 -20 112 -92 180 -158 69 -67 132 -126 141 -131 10 -5 20 -13
23 -18 3 -5 27 0 52 11 42 18 47 23 47 53 -1 83 -102 227 -200 285 -116 68
-138 76 -235 79 -49 1 -106 -1 -127 -5z"/>
<path d="M8456 4097 c-14 -30 -13 -112 2 -109 6 1 12 -5 12 -13 0 -8 7 -15 16
-15 14 0 14 3 4 15 -10 12 -10 18 0 30 10 12 10 15 0 15 -8 0 -11 9 -8 25 3
13 2 22 -3 20 -4 -3 -9 7 -11 22 -4 23 -6 25 -12 10z"/>
<path d="M6616 4073 c-6 -14 -5 -15 5 -6 7 7 10 15 7 18 -3 3 -9 -2 -12 -12z"/>
<path d="M9395 3963 c-4 -16 -8 -36 -10 -46 -2 -13 1 -17 10 -13 8 3 19 -2 24
-12 7 -12 11 -5 16 32 6 36 4 50 -6 57 -22 14 -28 11 -34 -18z"/>
<path d="M6125 3810 c-3 -6 1 -7 9 -4 18 7 21 14 7 14 -6 0 -13 -4 -16 -10z"/>
<path d="M6088 3773 c7 -3 16 -2 19 1 4 3 -2 6 -13 5 -11 0 -14 -3 -6 -6z"/>
<path d="M7540 3636 c0 -7 9 -16 20 -19 11 -3 20 -4 20 -3 0 1 -9 9 -20 19
-15 13 -20 14 -20 3z"/>
<path d="M7622 3566 c7 -8 17 -12 22 -9 4 3 2 9 -5 14 -22 13 -31 11 -17 -5z"/>
<path d="M7650 3539 c0 -5 5 -7 10 -4 6 3 10 8 10 11 0 2 -4 4 -10 4 -5 0 -10
-5 -10 -11z"/>
<path d="M7590 3346 c0 -14 6 -31 13 -38 8 -7 16 -20 20 -28 5 -13 5 -13 6 0
0 8 -6 26 -13 39 -8 14 -12 31 -9 38 3 7 0 13 -6 13 -6 0 -11 -11 -11 -24z"/>
<path d="M7671 3133 c-1 -12 4 -25 9 -28 12 -7 12 2 0 30 -8 19 -9 19 -9 -2z"/>
<path d="M7727 3003 c-4 -3 -7 -11 -7 -17 0 -6 5 -5 12 2 6 6 9 14 7 17 -3 3
-9 2 -12 -2z"/>
<path d="M9110 2955 c-79 -29 -110 -35 -133 -30 -26 7 -91 -18 -161 -63 -71
-45 -84 -60 -80 -95 1 -18 0 -26 -3 -19 -8 20 -21 14 -20 -10 0 -13 -4 -32 -8
-42 -6 -13 -5 -17 3 -12 6 4 5 -5 -3 -21 -13 -26 -22 -65 -24 -103 -1 -13 -2
-13 -11 0 -5 8 -10 10 -10 4 0 -15 40 -41 74 -50 17 -4 26 -13 26 -25 0 -27
23 -79 47 -106 41 -46 102 -68 188 -67 98 1 167 24 264 88 120 80 189 175 213
292 9 46 9 57 -3 65 -11 6 -11 11 -2 20 23 23 -44 120 -96 140 -50 20 -172 49
-198 48 -16 -1 -44 -7 -63 -14z m-130 -40 c0 -2 -12 -11 -27 -19 -32 -17 -82
-63 -131 -120 -23 -26 -37 -35 -44 -28 -7 7 -3 17 11 31 12 12 21 28 21 36 0
8 7 15 15 15 7 0 18 8 23 17 16 28 132 88 132 68z m-19 -368 c-13 -13 -31 0
-24 19 4 11 8 12 20 3 9 -8 10 -16 4 -22z m179 -12 c0 -8 -7 -15 -15 -15 -16
0 -20 12 -8 23 11 12 23 8 23 -8z m94 -24 c3 -5 -1 -14 -9 -21 -10 -9 -15 -9
-15 -1 0 6 -8 11 -17 12 -15 0 -15 2 2 9 27 11 33 12 39 1z"/>
<path d="M8686 2724 c-4 -9 -4 -19 -1 -22 2 -3 7 3 11 12 4 9 4 19 1 22 -2 3
-7 -3 -11 -12z"/>
<path d="M7150 2695 c0 -6 75 -47 90 -50 8 -1 15 -7 15 -13 0 -5 20 -30 44
-54 27 -26 36 -32 22 -14 -17 23 -19 31 -9 38 9 6 6 7 -9 3 -12 -3 -24 -1 -28
5 -3 5 0 10 7 10 9 0 8 5 -3 16 -14 14 -27 19 -64 24 -5 1 -1 5 10 10 14 6 15
9 5 10 -10 1 -9 4 5 9 14 6 4 9 -32 9 -29 1 -53 -1 -53 -3z"/>
<path d="M7250 2676 c0 -2 7 -6 15 -10 8 -3 15 -1 15 4 0 6 -7 10 -15 10 -8 0
-15 -2 -15 -4z"/>
<path d="M8650 2590 c-8 -5 -12 -12 -9 -15 4 -3 12 1 19 10 14 17 11 19 -10 5z"/>
<path d="M9406 1965 c-32 -171 -160 -426 -291 -580 -112 -132 -296 -298 -361
-327 -69 -30 -166 -28 -239 5 l-60 27 35 -30 c39 -34 114 -60 172 -60 53 0
180 27 242 52 178 70 324 216 375 374 10 33 38 96 61 142 23 46 50 114 60 150
22 82 34 216 22 257 l-9 30 -7 -40z"/>
<path d="M6707 1873 c-4 -3 -7 -11 -7 -17 0 -6 5 -5 12 2 6 6 9 14 7 17 -3 3
-9 2 -12 -2z"/>
<path d="M7070 1775 c0 -11 5 -27 10 -35 8 -12 10 -12 10 5 0 11 -5 27 -10 35
-8 12 -10 12 -10 -5z"/>
<path d="M5887 1337 c-3 -9 -2 -19 4 -23 15 -9 18 -2 9 20 -6 17 -7 18 -13 3z"/>
<path d="M6635 1220 c-3 -5 -1 -10 4 -10 6 0 11 5 11 10 0 6 -2 10 -4 10 -3 0
-8 -4 -11 -10z"/>
<path d="M6613 1186 c1 -20 7 -36 14 -36 9 0 9 8 1 33 -15 44 -17 45 -15 3z"/>
<path d="M6380 1048 l1 -83 24 28 c14 15 25 33 25 39 0 7 -7 3 -16 -8 -15 -18
-15 -17 -10 19 2 20 1 37 -3 37 -5 0 -6 11 -3 25 2 15 0 25 -7 25 -7 0 -11
-28 -11 -82z"/>
<path d="M5150 580 c-8 -14 -8 -26 0 -40 6 -11 12 -20 13 -20 1 0 2 18 2 40 1
46 0 47 -15 20z"/>
<path d="M7201 586 c2 -2 20 -6 39 -10 25 -4 31 -3 20 4 -14 9 -69 15 -59 6z"/>
<path d="M7281 572 c4 -26 -4 -32 -43 -31 l-43 2 40 7 c39 7 38 7 -17 9 -31 0
-68 -3 -82 -9 -16 -6 -35 -6 -54 1 -18 6 -37 6 -53 0 -18 -7 -20 -10 -6 -10
10 -1 60 -15 110 -32 173 -58 284 -137 353 -251 32 -52 37 -70 45 -156 4 -53
8 -98 9 -99 0 -2 23 -3 50 -3 46 0 52 3 61 28 6 15 14 57 16 94 5 61 3 71 -23
112 -16 25 -32 46 -36 46 -5 0 -8 5 -8 11 0 19 -63 102 -124 163 -53 52 -60
57 -67 40 -7 -17 -8 -17 -8 4 -1 12 -6 22 -12 22 -5 0 -7 4 -4 10 4 7 -3 7
-20 0 -34 -13 -35 -13 -29 5 5 13 2 14 -22 5 -23 -9 -27 -9 -16 1 16 17 15 26
-3 33 -8 3 -14 2 -14 -2z m109 -73 c0 -5 -4 -9 -10 -9 -5 0 -10 7 -10 16 0 8
5 12 10 9 6 -3 10 -10 10 -16z"/>
<path d="M6728 563 c6 -2 18 -2 25 0 6 3 1 5 -13 5 -14 0 -19 -2 -12 -5z"/>
<path d="M6636 541 c-4 -5 3 -7 14 -4 23 6 26 13 6 13 -8 0 -17 -4 -20 -9z"/>
<path d="M6728 543 c7 -3 16 -2 19 1 4 3 -2 6 -13 5 -11 0 -14 -3 -6 -6z"/>
<path d="M6598 523 c7 -3 16 -2 19 1 4 3 -2 6 -13 5 -11 0 -14 -3 -6 -6z"/>
<path d="M5220 389 c-23 -10 -277 -86 -380 -115 -189 -52 -313 -85 -570 -150
-162 -42 -335 -86 -385 -99 l-90 -23 145 -1 c108 -1 151 3 165 13 11 7 52 23
90 34 207 60 709 218 800 252 28 10 101 35 163 55 61 21 112 39 112 41 0 7
-24 3 -50 -7z"/>
</g>
</svg>
